<?xml version="1.0" encoding="UTF-8" standalone="no"?><!DOCTYPE svg PUBLIC "-//W3C//DTD SVG 1.1//EN" "http://www.w3.org/Graphics/SVG/1.1/DTD/svg11.dtd"><svg width="100%" height="100%" viewBox="0 0 162 72" version="1.1" xmlns="http://www.w3.org/2000/svg" xmlns:xlink="http://www.w3.org/1999/xlink" xml:space="preserve" xmlns:serif="http://www.serif.com/" style="fill-rule:evenodd;clip-rule:evenodd;stroke-linejoin:round;stroke-miterlimit:2;"><path d="M64.184,31.379c-0.405,1.283 -0.879,2.633 -1.43,4.033c-0.21,-0.058 -0.43,-0.091 -0.658,-0.091c-0.383,0 -0.745,0.089 -1.07,0.243c-4.543,-5.006 -8.629,-9.983 -12.119,-14.49c0.292,-0.414 0.485,-0.9 0.548,-1.428c4.747,-0.31 9.801,-0.178 15.063,0.597c0.138,0.997 0.862,1.805 1.815,2.066c-0.435,2.712 -1.11,5.783 -2.149,9.07m-26.8,35.032c-0.349,-0.431 -0.812,-0.764 -1.342,-0.961l2.427,-20.953c1.542,-0.191 2.737,-1.504 2.737,-3.098c0,-0.059 -0.005,-0.117 -0.009,-0.176c8.095,-2.022 15.045,-2.517 18.515,-2.63c0.182,0.564 0.559,1.04 1.051,1.35c-4.156,8.537 -11.261,18.26 -23.379,26.468m-18.145,-12.011c-0.238,-0.274 -0.478,-0.553 -0.719,-0.838c0.453,-0.506 0.731,-1.172 0.731,-1.905c0,-0.342 -0.063,-0.669 -0.173,-0.973c5.265,-3.505 10.886,-6 16.27,-7.773c0.36,0.649 0.945,1.154 1.649,1.415l-2.427,20.953c-0.817,0.101 -1.538,0.517 -2.033,1.124c-3.055,-2.142 -8.199,-6.159 -13.298,-12.003m-9.865,-19.699c0,-0.41 -0.082,-0.801 -0.225,-1.16c1.947,-1.31 5.002,-3.212 8.951,-5.192c0.211,0.249 0.47,0.454 0.762,0.605l-2.814,19.869c-0.351,0.043 -0.683,0.148 -0.982,0.306c-2.452,-3.422 -4.849,-7.434 -6.84,-12.009c0.7,-0.573 1.148,-1.444 1.148,-2.419m-6.121,-19.816c0.609,-0.025 1.174,-0.222 1.645,-0.547l12.807,11.404c-0.13,0.303 -0.202,0.636 -0.202,0.987c0,0.086 0.004,0.172 0.013,0.256c-4.072,2.037 -7.223,4 -9.229,5.351c-0.547,-0.472 -1.258,-0.759 -2.038,-0.759c-0.04,0 -0.08,0.004 -0.12,0.006c-1.625,-5.015 -2.705,-10.586 -2.876,-16.698m17.771,-10.132c3.158,-0.734 6.912,-1.31 11.183,-1.455c0.042,0.748 0.344,1.424 0.82,1.94l-12.648,19.017c-0.122,-0.019 -0.245,-0.031 -0.372,-0.031c-0.494,0 -0.953,0.145 -1.34,0.392l-12.783,-11.384c0.232,-0.437 0.365,-0.935 0.365,-1.465c0,-0.375 -0.069,-0.733 -0.19,-1.066c2.814,-1.696 7.947,-4.314 14.965,-5.948m13.237,1.306c0.332,0.121 0.688,0.19 1.062,0.19c0.357,0 0.698,-0.063 1.016,-0.173c1.572,2.394 4.221,6.305 7.738,11.065c-0.424,0.452 -0.713,1.029 -0.809,1.67c-7.802,1.135 -14.564,3.309 -19.785,5.457c-0.574,0.236 -1.133,0.474 -1.683,0.714c-0.025,-0.025 -0.051,-0.05 -0.077,-0.074l12.538,-18.849Zm3.821,32.216c-0.713,0 -1.367,0.241 -1.893,0.642l-13.876,-11.21c0.128,-0.301 0.198,-0.631 0.198,-0.978c0,-0.145 -0.014,-0.286 -0.038,-0.424c0.53,-0.23 1.068,-0.46 1.62,-0.686c5.101,-2.095 11.699,-4.215 19.308,-5.33c0.204,0.594 0.582,1.106 1.073,1.478l-6.046,16.528c-0.114,-0.013 -0.229,-0.02 -0.346,-0.02m26.889,-26.557l-16.212,5.563c-0.573,-0.69 -1.437,-1.13 -2.405,-1.13c-0.363,0 -0.711,0.065 -1.035,0.18c-3.517,-4.758 -6.166,-8.669 -7.734,-11.056c0.474,-0.498 0.785,-1.15 0.849,-1.875c7.737,0.506 16.771,2.5 26.779,7.167c-0.156,0.327 -0.246,0.691 -0.246,1.076c0,0.026 0.003,0.05 0.004,0.075m-46.743,37.75c-0.213,-0.179 -0.453,-0.328 -0.713,-0.439l2.807,-19.818c0.377,-0.047 0.728,-0.178 1.034,-0.374l13.902,11.232c-0.191,0.404 -0.301,0.854 -0.301,1.33c0,0.028 0.004,0.056 0.005,0.084c-5.532,1.815 -11.316,4.375 -16.734,7.985m41.468,-12.355c-3.553,0.116 -10.657,0.623 -18.928,2.696c-0.239,-0.402 -0.561,-0.747 -0.948,-1.006l6.017,-16.449c0.168,0.028 0.341,0.046 0.517,0.046c0.518,0 1.006,-0.128 1.436,-0.351c3.502,4.52 7.595,9.501 12.145,14.515c-0.1,0.171 -0.181,0.354 -0.239,0.549m-8.692,-19.036l14.447,-4.957c0.383,0.522 0.961,0.889 1.628,0.994c-0.015,0.919 -0.06,2.022 -0.158,3.281c-0.95,0.028 -1.766,0.584 -2.166,1.385c-4.776,-0.705 -9.383,-0.892 -13.751,-0.703m17.385,-0.262c0.128,-1.539 0.177,-2.86 0.187,-3.926c0.828,-0.409 1.4,-1.259 1.4,-2.246c0,-1.383 -1.122,-2.504 -2.505,-2.504c-0.426,0 -0.827,0.107 -1.179,0.295c-10.516,-4.974 -20,-7.046 -28.093,-7.533c-0.476,-1.118 -1.584,-1.901 -2.876,-1.901c-1.255,0 -2.334,0.741 -2.831,1.808c-4.55,0.131 -8.542,0.739 -11.882,1.521c-7.276,1.704 -12.507,4.381 -15.384,6.13c-0.556,-0.506 -1.291,-0.817 -2.101,-0.817c-1.726,0 -3.125,1.399 -3.125,3.125c0,1.238 0.723,2.305 1.767,2.811c0.143,6.381 1.249,12.191 2.935,17.411c-0.941,0.538 -1.577,1.55 -1.577,2.712c0,1.726 1.399,3.125 3.124,3.125c0.219,0 0.432,-0.023 0.638,-0.066c2.063,4.728 4.548,8.865 7.086,12.387c-0.274,0.438 -0.435,0.955 -0.435,1.51c0,1.578 1.279,2.857 2.857,2.857c0.305,0 0.599,-0.049 0.875,-0.138c0.297,0.354 0.594,0.702 0.887,1.038c5.355,6.128 10.655,10.226 13.736,12.359c-0.039,0.196 -0.06,0.397 -0.06,0.604c0,1.726 1.399,3.125 3.124,3.125c1.726,0 3.125,-1.399 3.125,-3.125c0,-0.208 -0.022,-0.412 -0.06,-0.609c12.615,-8.491 19.947,-18.6 24.201,-27.444c1.324,-0.067 2.377,-1.158 2.377,-2.498c0,-0.608 -0.216,-1.165 -0.576,-1.599c0.619,-1.554 1.148,-3.051 1.594,-4.467c1.094,-3.477 1.792,-6.694 2.235,-9.514c0.96,-0.351 1.647,-1.269 1.647,-2.35c0,-0.868 -0.441,-1.631 -1.111,-2.081" style="fill:#080605;fill-rule:nonzero;"/><path d="M90.801,43.573c-0.406,0.111 -2.19,0.447 -4.272,0.447c-3.245,0 -7.652,-1.649 -7.652,-8.55l0,-4.107c0,-7.013 4.407,-8.549 7.652,-8.549c2.082,0 3.866,0.335 4.272,0.446c0.351,0.113 0.595,0.252 0.595,0.643l0,1.872c0,0.335 -0.136,0.587 -0.541,0.587l-0.054,0c-0.947,-0.084 -2.785,-0.224 -4.218,-0.224c-2.271,0 -3.921,1.258 -3.921,5.225l0,4.107c0,3.884 1.65,5.225 3.921,5.225c1.433,0 3.271,-0.139 4.218,-0.223l0.054,0c0.405,0 0.541,0.251 0.541,0.586l0,1.872c0,0.391 -0.244,0.531 -0.595,0.643" style="fill:#080605;fill-rule:nonzero;"/><path d="M106.702,28.68l-4.516,16.318c-0.838,3.044 -1.839,4.386 -5.516,4.386c-0.892,0 -2.244,-0.168 -2.866,-0.363c-0.297,-0.084 -0.568,-0.196 -0.568,-0.475l0,-1.788c0,-0.308 0.244,-0.504 0.541,-0.504l0.054,0c0.757,0.028 2.298,0.168 3.055,0.168c1.163,0 1.758,-0.335 2.137,-1.788l0.216,-0.838l-0.406,0c-0.784,0 -1.757,-0.195 -2.352,-2.319l-3.542,-12.797c-0.027,-0.084 -0.027,-0.14 -0.027,-0.195c0,-0.279 0.162,-0.447 0.513,-0.447l2.731,0c0.244,0 0.461,0.251 0.514,0.502l2.731,11.372c0.108,0.475 0.217,0.615 0.379,0.615l0.243,0l2.92,-12.014c0.055,-0.251 0.271,-0.475 0.541,-0.475l2.759,0c0.269,0 0.486,0.224 0.486,0.475c0,0.056 0,0.112 -0.027,0.167" style="fill:#080605;fill-rule:nonzero;"/><path d="M120.277,34.101l-8.301,0l0,9.136c0,0.307 -0.244,0.559 -0.541,0.559l-1.379,0c-0.298,0 -0.541,-0.252 -0.541,-0.559l0,-15.199c0,-3.717 1.974,-5.197 5.759,-5.197c1.596,0 4.138,0.056 5.273,0.167c0.163,0.029 0.271,0.225 0.271,0.392l0,1.396c0,0.197 -0.108,0.336 -0.297,0.336l-5.219,0c-2.866,0 -3.326,0.782 -3.326,2.906l0,3.884l8.301,0c0.297,0 0.541,0.25 0.541,0.559l0,1.061c0,0.307 -0.244,0.559 -0.541,0.559" style="fill:#080605;fill-rule:nonzero;"/><path d="M135.014,43.796l-1.352,0c-0.298,0 -0.514,-0.252 -0.514,-0.559l0,-0.531c-1.487,0.867 -2.704,1.285 -4.299,1.285c-3.245,0 -4.705,-2.095 -4.705,-5.811l0,-9.193c0,-0.307 0.243,-0.558 0.541,-0.558l1.298,0c0.297,0 0.54,0.251 0.54,0.558l0,9.193c0,2.822 0.92,3.688 2.975,3.688c1.136,0 2.407,-0.446 3.65,-1.089l0,-11.792c0,-0.279 0.244,-0.558 0.541,-0.558l1.325,0c0.27,0 0.513,0.251 0.513,0.558l0,14.25c0,0.307 -0.216,0.559 -0.513,0.559" style="fill:#080605;fill-rule:nonzero;"/><path d="M150.049,43.796l-1.298,0c-0.298,0 -0.541,-0.252 -0.541,-0.559l0,-9.193c0,-2.821 -0.92,-3.687 -2.975,-3.687c-1.135,0 -2.406,0.447 -3.65,1.09l0,11.79c0,0.28 -0.243,0.559 -0.54,0.559l-1.326,0c-0.27,0 -0.513,-0.252 -0.513,-0.559l0,-14.25c0,-0.307 0.216,-0.558 0.513,-0.558l1.353,0c0.297,0 0.513,0.251 0.513,0.558l0,0.532c1.487,-0.866 2.704,-1.286 4.299,-1.286c3.245,0 4.706,2.096 4.706,5.811l0,9.193c0,0.307 -0.244,0.559 -0.541,0.559" style="fill:#080605;fill-rule:nonzero;"/><path d="M157.994,25.443c0,-0.539 -0.299,-0.734 -1.009,-0.734l-0.677,0l0,1.565c0.11,0 0.598,0.016 0.677,0.016c0.726,0 1.009,-0.245 1.009,-0.75l0,-0.097Zm1.072,3.846l-0.804,0c-0.079,0 -0.142,-0.065 -0.173,-0.13l-1.104,-1.924c-0.015,-0.032 -0.11,-0.081 -0.157,-0.081l-0.489,0l0,1.923c0,0.098 -0.079,0.212 -0.189,0.212l-0.725,0c-0.111,0 -0.189,-0.114 -0.189,-0.212l0,-4.841c0,-0.293 0.094,-0.407 0.347,-0.44c0.236,-0.032 0.93,-0.064 1.323,-0.064c1.34,0 2.144,0.423 2.144,1.711l0,0.097c0,0.8 -0.394,1.223 -0.977,1.434l1.135,2.006c0.016,0.032 0.031,0.081 0.031,0.13c0,0.081 -0.047,0.179 -0.173,0.179m-1.923,-6.422c-1.986,0 -3.594,1.679 -3.594,3.733c0,2.053 1.608,3.716 3.594,3.716c1.986,0 3.61,-1.663 3.61,-3.716c0,-2.054 -1.624,-3.733 -3.61,-3.733m0,8.215c-2.396,0 -4.335,-2.005 -4.335,-4.482c0,-2.478 1.939,-4.483 4.335,-4.483c2.396,0 4.351,2.005 4.351,4.483c0,2.477 -1.955,4.482 -4.351,4.482" style="fill:#080605;fill-rule:nonzero;"/></svg>