<?xml version="1.0" encoding="UTF-8" standalone="no"?>
<!DOCTYPE svg PUBLIC "-//W3C//DTD SVG 1.1//EN" "http://www.w3.org/Graphics/SVG/1.1/DTD/svg11.dtd">
<svg width="100%" height="100%" viewBox="0 0 47 40" version="1.1" xmlns="http://www.w3.org/2000/svg" xmlns:xlink="http://www.w3.org/1999/xlink" xml:space="preserve" xmlns:serif="http://www.serif.com/" style="fill-rule:evenodd;clip-rule:evenodd;stroke-linejoin:round;stroke-miterlimit:2;">
    <g id="Layer_1-2" transform="matrix(1,0,0,1,0,-3.68)">
        <g transform="matrix(1,0,0,1,-0.1625,3.299661)">
            <g>
                <clipPath id="_clip1">
                    <rect x="0" y="0" width="46.22" height="39.41"/>
                </clipPath>
                <g clip-path="url(#_clip1)">
                    <path d="M40.18,20.4C39.85,19.55 39.19,18.78 38.37,18.23C36.02,16.74 32.44,16.63 30.02,17.98C28.7,18.65 27.83,19.99 27.56,21.36C27.07,23.61 27.2,26.3 28.93,27.99C30.96,29.77 33.9,30.16 36.52,29.43C36.64,29.41 37.04,29.31 37.31,29.16L37.39,29.13C38.2,28.79 38.98,28.24 39.56,27.49C40.9,25.54 40.99,22.6 40.18,20.4M35.91,25.46C35.82,25.89 35.53,26.33 35.08,26.49C34.36,26.81 33.38,26.72 32.71,26.35C32.15,25.96 32.08,25.3 32,24.68C31.95,23.46 31.86,22.16 32.2,21.04C32.47,20.35 33.21,20.17 33.88,20.12C34.59,20.12 35.27,20.23 35.71,20.8C35.98,21.21 35.96,21.74 36.02,22.22C36,23.23 36.09,24.44 35.91,25.47" style="fill:rgb(8,6,5);fill-rule:nonzero;"/>
                    <path d="M14.49,26.56C13.89,26.52 13.22,26.58 12.65,26.51L12.67,20.27L12.71,20.22L14.5,20.2C14.52,19.19 14.54,18.1 14.48,17.18L7.67,17.16L6.55,17.18C6.53,18.12 6.53,19.22 6.55,20.18C7.17,20.2 7.74,20.18 8.34,20.24L8.34,26.28L8.32,26.53L6.53,26.57C6.49,27.56 6.49,28.52 6.53,29.5L14.5,29.5L14.5,26.57L14.49,26.56Z" style="fill:rgb(8,6,5);fill-rule:nonzero;"/>
                    <path d="M34.56,30.82C33.8,31.9 32.84,32.95 31.8,33.77C31.76,33.82 31.65,33.8 31.62,33.75C31.17,33.47 30.68,33.24 30.24,32.95C30.82,32.26 31.38,31.56 31.81,30.8L31.25,30.8C30.8,31.46 30.33,32.15 29.73,32.74C28.93,32.42 28.21,32.14 27.4,31.92L27.31,31.85C27.44,31.49 27.67,31.15 27.74,30.8L27.25,30.8L26.76,31.76C25.69,31.53 24.52,31.4 23.43,31.33C23.37,31.17 23.45,30.94 23.37,30.8L22.9,30.8C22.86,31.01 22.95,31.17 22.85,31.35C21.73,31.4 20.64,31.53 19.6,31.74L19.11,30.8C18.93,30.8 18.73,30.77 18.6,30.82L19.05,31.87L19,31.92C18.18,32.15 17.39,32.44 16.61,32.76L16.54,32.72C16.03,32.17 15.55,31.57 15.15,30.96C15.06,30.66 14.7,30.83 14.5,30.8C14.93,31.58 15.51,32.27 16.09,32.99C15.6,33.27 15.12,33.59 14.61,33.83C13.53,33.01 12.52,31.95 11.75,30.83C11.53,30.8 11.39,30.81 11.17,30.83C12.47,32.86 14.5,34.63 16.61,35.68C16.61,35.68 16.61,35.66 16.63,35.66C16.65,35.66 16.68,35.69 16.65,35.71C18.08,36.4 19.6,36.9 21.21,37.11C26.76,37.84 32.06,35.48 35.13,30.82C34.97,30.8 34.73,30.8 34.55,30.82M27.02,32.42L27.07,32.38C27.85,32.56 28.59,32.81 29.28,33.14C28.7,33.8 27.96,34.37 27.27,34.84C26.85,35.09 26.44,35.36 26,35.57L25.22,35.23L25.27,35.11C25.92,34.24 26.5,33.35 27.01,32.41M23.46,31.89C24.49,31.91 25.52,32.02 26.48,32.25L26.5,32.3C25.99,33.26 25.36,34.18 24.67,35.05C24.36,35.09 24.07,34.96 23.77,34.94L23.46,34.9C23.42,33.85 23.4,32.93 23.46,31.88M19.97,32.21C20.91,32.03 21.89,31.89 22.9,31.89L22.92,34.9C22.54,34.99 22.12,34.99 21.76,35.08C21.02,34.21 20.4,33.27 19.88,32.29L19.97,32.22L19.97,32.21ZM17.06,33.17C17.77,32.83 18.51,32.58 19.27,32.39L19.34,32.41C19.86,33.39 20.51,34.31 21.16,35.23C20.91,35.37 20.6,35.46 20.35,35.6C19.16,35.01 18.02,34.2 17.06,33.22L17.06,33.17ZM19.39,36.21C17.87,35.82 16.46,35.14 15.16,34.22L15.16,34.17C15.59,33.91 16.03,33.62 16.5,33.42C17.53,34.44 18.6,35.2 19.76,35.93C19.67,36.04 19.52,36.14 19.4,36.22M26.1,36.44C24.18,36.85 22.05,36.87 20.13,36.41C20.09,36.32 20.22,36.3 20.27,36.25C21.95,35.17 24.57,35.17 26.22,36.34C26.27,36.45 26.13,36.41 26.09,36.45M27.83,35.94L26.98,36.21C26.84,36.14 26.71,36.03 26.58,35.92L26.62,35.87C27.78,35.2 28.83,34.38 29.82,33.4C30.31,33.6 30.78,33.86 31.21,34.16C30.2,34.96 29.02,35.49 27.83,35.94" style="fill:rgb(8,6,5);fill-rule:nonzero;"/>
                    <path d="M11.73,15.81C12.16,15.21 12.65,14.62 13.19,14.05C13.66,13.61 14.09,13.18 14.6,12.86C15.07,13.16 15.59,13.41 16.05,13.7C15.49,14.39 14.91,15.09 14.49,15.83C14.62,15.88 14.85,15.87 15.03,15.83C15.48,15.17 15.97,14.52 16.55,13.93C17.33,14.21 18.09,14.52 18.88,14.73L18.95,14.8L18.5,15.83C18.7,15.87 18.83,15.85 19.02,15.83C19.18,15.53 19.31,15.19 19.49,14.89C20.54,15.12 21.64,15.25 22.76,15.28C22.9,15.41 22.8,15.67 22.85,15.83L23.34,15.83C23.39,15.66 23.32,15.46 23.39,15.3C24.44,15.24 25.54,15.14 26.56,14.89L26.65,14.91L27.14,15.83C27.3,15.83 27.52,15.87 27.65,15.79L27.2,14.76L27.24,14.72C28.07,14.51 28.85,14.19 29.64,13.87C30.2,14.46 30.72,15.15 31.2,15.82C31.4,15.82 31.6,15.84 31.74,15.78C31.52,15.39 31.25,15 30.96,14.66C30.72,14.32 30.47,14.02 30.16,13.7L30.16,13.61L31.43,12.88L31.61,12.81C32.71,13.64 33.69,14.66 34.47,15.78C34.69,15.78 34.87,15.85 35.05,15.76C32.63,12.14 28.63,9.81 24.31,9.47L24.29,9.5L24.25,9.47C23.76,9.42 23.16,9.4 22.64,9.45C22.44,9.43 22.21,9.45 21.97,9.47C17.63,9.81 13.64,12.03 11.14,15.81C11.32,15.79 11.54,15.86 11.72,15.79M19.23,14.25L19.16,14.27C18.42,14.08 17.69,13.84 17.01,13.54L17.04,13.43C18.03,12.49 19.08,11.71 20.24,11.1C20.51,11.21 20.78,11.3 21.05,11.42L21,11.56C20.31,12.41 19.77,13.34 19.23,14.25M22.83,14.73C22.32,14.8 21.87,14.71 21.36,14.67C20.87,14.6 20.26,14.55 19.77,14.39C20.29,13.42 20.91,12.47 21.65,11.61L22.81,11.77C22.86,12.69 22.83,13.76 22.83,14.74M23.39,14.75C23.35,13.81 23.37,12.76 23.39,11.78C23.75,11.73 24.15,11.67 24.51,11.62C25.22,12.51 25.9,13.42 26.37,14.39C25.39,14.62 24.4,14.75 23.39,14.75M29.15,13.5C28.44,13.8 27.72,14.09 26.94,14.25C26.38,13.31 25.77,12.37 25.08,11.46C25.33,11.32 25.64,11.21 25.91,11.07C27.09,11.66 28.23,12.49 29.18,13.45L29.15,13.51L29.15,13.5ZM26.84,10.46C28.36,10.85 29.79,11.53 31.09,12.45L31.05,12.52L29.8,13.21L29.71,13.21C28.75,12.25 27.63,11.42 26.49,10.76C26.53,10.64 26.71,10.55 26.83,10.46M26.12,10.29L26.12,10.33C24.55,11.46 22,11.57 20.34,10.52C20.25,10.45 20.07,10.41 20.05,10.29C21.97,9.85 24.23,9.81 26.13,10.29M15.09,12.49C16.23,11.66 17.5,11.03 18.83,10.61C18.88,10.55 18.92,10.5 18.99,10.5L18.99,10.54C19.13,10.57 19.24,10.41 19.37,10.52C19.48,10.61 19.61,10.68 19.7,10.77C18.58,11.46 17.48,12.28 16.46,13.27C15.97,13.1 15.52,12.83 15.09,12.53L15.09,12.49Z" style="fill:rgb(8,6,5);fill-rule:nonzero;"/>
                    <path d="M22.84,26.7C21.14,27.16 19.3,26.81 18.07,25.53C17.93,25.35 17.84,25.14 17.69,24.96L15.25,24.98C15.21,26.42 15.19,28.07 15.25,29.49L17.96,29.47L18,28.62C18.31,28.76 18.62,28.94 18.92,29.1C20.8,29.88 23.22,30.06 25.08,29.1C26.44,28.36 27.16,26.92 26.96,25.37C26.76,23.86 25.32,22.49 23.85,22.12L19.47,20.86L19.15,20.7C19.01,20.58 18.91,20.42 18.95,20.22C19.29,19.63 20.09,19.81 20.69,19.83C21.96,20.01 23.26,20.43 24,21.59C24.79,21.59 25.72,21.61 26.58,21.57C26.62,20.11 26.56,18.84 26.54,17.36C25.73,17.34 24.73,17.34 23.92,17.38C23.88,17.59 23.95,17.89 23.86,18.11L23.03,17.67C21.04,16.84 18.26,16.75 16.45,18.04C15.27,18.89 14.91,20.42 15.22,21.77C15.45,23.05 16.68,23.99 17.86,24.43C19.47,25 21.15,25.41 22.78,25.96C22.94,26.03 23.16,26.19 23.12,26.39C23.12,26.55 22.96,26.64 22.83,26.71" style="fill:rgb(8,6,5);fill-rule:nonzero;"/>
                    <path d="M5.75,30.79L5.84,30.99C5.84,30.99 5.84,31.07 5.79,31.09L3.19,32.22C3.19,32.22 3.11,32.22 3.09,32.18L3,31.98C3,31.98 3,31.9 3.04,31.88L5.65,30.75C5.65,30.75 5.73,30.75 5.75,30.78" style="fill:rgb(8,6,5);fill-rule:nonzero;"/>
                    <path d="M4.98,28.69L5.04,28.87C5.04,28.87 5.04,28.96 4.99,28.97L3.73,29.4C3.34,29.53 3.27,29.7 3.37,29.99C3.42,30.15 3.55,30.31 3.69,30.46L5.31,29.92C5.31,29.92 5.4,29.92 5.41,29.97L5.47,30.16C5.47,30.16 5.47,30.24 5.42,30.26L3.47,30.92C3.47,30.92 3.38,30.92 3.37,30.87L3.31,30.68C3.31,30.68 3.31,30.6 3.36,30.58L3.43,30.55C3.24,30.38 3.12,30.23 3.05,30C2.89,29.54 3.11,29.24 3.62,29.07L4.88,28.65C4.88,28.65 4.97,28.65 4.98,28.7" style="fill:rgb(8,6,5);fill-rule:nonzero;"/>
                    <path d="M4.63,27.18C4.66,27.26 4.69,27.36 4.71,27.43C4.79,27.79 4.74,27.99 4.31,28.09L2.94,28.42L2.99,28.81C2.99,28.81 2.99,28.89 2.94,28.9L2.83,28.93C2.83,28.93 2.75,28.92 2.74,28.87L2.65,28.49L2.27,28.58C2.27,28.58 2.19,28.57 2.18,28.53L2.1,28.33L2.1,28.32C2.1,28.29 2.11,28.25 2.15,28.24L2.58,28.14L2.48,27.72C2.48,27.72 2.5,27.63 2.54,27.62L2.67,27.59C2.67,27.59 2.76,27.61 2.77,27.65L2.87,28.07L4.24,27.74C4.46,27.69 4.47,27.63 4.44,27.47L4.39,27.25C4.38,27.2 4.39,27.16 4.43,27.15L4.57,27.12C4.57,27.12 4.63,27.12 4.65,27.17" style="fill:rgb(8,6,5);fill-rule:nonzero;"/>
                    <path d="M3.33,25.37L3.51,26.71L3.57,26.71C4.05,26.64 4.19,26.43 4.14,26.06C4.11,25.83 4.05,25.53 4,25.35L4,25.33C4,25.3 4,25.26 4.05,25.26L4.19,25.24C4.24,25.24 4.27,25.24 4.29,25.31C4.37,25.53 4.42,25.75 4.46,26.02C4.52,26.48 4.37,26.96 3.63,27.06L3.27,27.11C2.7,27.19 2.29,26.92 2.21,26.35C2.13,25.77 2.46,25.42 3.02,25.34L3.24,25.31C3.29,25.31 3.33,25.33 3.34,25.37M3.07,25.69C2.62,25.75 2.47,25.95 2.52,26.3C2.57,26.64 2.79,26.81 3.22,26.75L3.26,26.75L3.11,25.69L3.07,25.69Z" style="fill:rgb(8,6,5);fill-rule:nonzero;"/>
                    <path d="M2.31,23.98C2.31,24.17 2.38,24.33 2.51,24.53L4.2,24.44C4.2,24.44 4.28,24.47 4.28,24.52L4.28,24.72C4.28,24.72 4.26,24.8 4.21,24.8L2.16,24.91C2.16,24.91 2.08,24.88 2.08,24.84L2.08,24.65C2.08,24.65 2.1,24.57 2.15,24.57L2.23,24.57C2.08,24.37 2.02,24.19 2.01,24.01C2.01,23.95 2.03,23.93 2.08,23.92L2.24,23.92C2.24,23.92 2.31,23.94 2.31,23.99" style="fill:rgb(8,6,5);fill-rule:nonzero;"/>
                    <path d="M4.29,21.88L4.29,22.07C4.29,22.07 4.24,22.15 4.2,22.15L2.88,22.1C2.47,22.08 2.34,22.22 2.33,22.52C2.33,22.69 2.38,22.88 2.47,23.07L4.17,23.14C4.17,23.14 4.25,23.18 4.25,23.22L4.25,23.42C4.25,23.42 4.2,23.5 4.16,23.49L2.11,23.41C2.11,23.41 2.03,23.37 2.03,23.33L2.03,23.13C2.03,23.13 2.08,23.06 2.12,23.06L2.2,23.06C2.09,22.84 2.03,22.65 2.04,22.42C2.06,21.94 2.37,21.73 2.9,21.75L4.22,21.8C4.22,21.8 4.3,21.84 4.3,21.88" style="fill:rgb(8,6,5);fill-rule:nonzero;"/>
                    <path d="M4.56,19.9L4.53,20.08C4.53,20.08 4.48,20.15 4.44,20.15L4.35,20.15C4.43,20.35 4.49,20.56 4.46,20.78C4.41,21.12 4.22,21.41 3.72,21.33L3.67,21.33C3.24,21.26 3.06,20.98 3.17,20.27L3.21,19.98L3.05,19.96C2.71,19.91 2.58,20.01 2.54,20.32C2.5,20.58 2.49,20.77 2.48,20.94L2.48,20.96C2.48,21 2.46,21.03 2.41,21.02L2.27,21C2.27,21 2.21,20.96 2.21,20.91C2.21,20.74 2.21,20.55 2.25,20.28C2.33,19.73 2.64,19.54 3.11,19.61L4.5,19.82C4.5,19.82 4.58,19.87 4.57,19.91M3.46,20.02L3.42,20.31C3.35,20.79 3.44,20.93 3.72,20.98L3.77,20.98C4.06,21.03 4.15,20.91 4.19,20.67C4.22,20.49 4.19,20.31 4.11,20.11L3.47,20.02L3.46,20.02Z" style="fill:rgb(8,6,5);fill-rule:nonzero;"/>
                    <path d="M4.91,18.42C4.91,18.5 4.89,18.6 4.87,18.68C4.78,19.04 4.65,19.19 4.22,19.09L2.85,18.76L2.72,19.13C2.72,19.13 2.68,19.2 2.63,19.19L2.52,19.16C2.52,19.16 2.46,19.11 2.47,19.07L2.56,18.69L2.18,18.6C2.18,18.6 2.12,18.55 2.12,18.51L2.14,18.3L2.14,18.29C2.14,18.26 2.18,18.24 2.22,18.25L2.65,18.35L2.75,17.93C2.75,17.93 2.81,17.86 2.85,17.87L2.98,17.9C2.98,17.9 3.05,17.95 3.04,18L2.94,18.42L4.31,18.75C4.53,18.8 4.57,18.75 4.61,18.6L4.66,18.38C4.67,18.33 4.69,18.3 4.73,18.31L4.87,18.34C4.87,18.34 4.93,18.37 4.92,18.43" style="fill:rgb(8,6,5);fill-rule:nonzero;"/>
                    <path d="M2.65,17L2.59,17.2C2.59,17.2 2.53,17.27 2.49,17.25L2.18,17.16C2.18,17.16 2.11,17.1 2.13,17.06L2.19,16.86C2.19,16.86 2.25,16.79 2.29,16.81L2.6,16.9C2.6,16.9 2.67,16.96 2.65,17M5.11,17.76L5.05,17.94C5.05,17.94 4.99,18.01 4.95,17.99L2.99,17.39C2.99,17.39 2.92,17.33 2.94,17.29L3,17.1C3,17.1 3.06,17.03 3.1,17.05L5.06,17.65C5.06,17.65 5.13,17.71 5.11,17.75" style="fill:rgb(8,6,5);fill-rule:nonzero;"/>
                    <path d="M5.6,16.45C5.38,17 4.91,17.13 4.36,16.92L4.08,16.81C3.53,16.59 3.28,16.17 3.5,15.62C3.72,15.07 4.19,14.93 4.74,15.15L5.02,15.26C5.57,15.48 5.82,15.91 5.6,16.46M4.61,15.47C4.23,15.32 3.93,15.37 3.79,15.73C3.65,16.08 3.83,16.33 4.22,16.48L4.5,16.59C4.88,16.74 5.18,16.69 5.32,16.34C5.46,15.99 5.28,15.74 4.89,15.59L4.61,15.48L4.61,15.47Z" style="fill:rgb(8,6,5);fill-rule:nonzero;"/>
                    <path d="M6.83,13.84L6.74,14.01C6.74,14.01 6.67,14.06 6.63,14.04L5.46,13.41C5.1,13.22 4.93,13.28 4.78,13.55C4.7,13.7 4.67,13.9 4.66,14.1L6.16,14.9C6.16,14.9 6.21,14.97 6.19,15.01L6.1,15.18C6.1,15.18 6.03,15.23 5.99,15.21L4.18,14.24C4.18,14.24 4.12,14.17 4.15,14.13L4.24,13.95C4.24,13.95 4.31,13.9 4.35,13.92L4.42,13.96C4.42,13.71 4.45,13.52 4.56,13.31C4.79,12.88 5.16,12.83 5.63,13.09L6.8,13.72C6.8,13.72 6.85,13.79 6.83,13.83" style="fill:rgb(8,6,5);fill-rule:nonzero;"/>
                    <path d="M7.92,12.2L7.81,12.35C7.81,12.35 7.73,12.4 7.7,12.37L7.63,12.32C7.61,12.54 7.57,12.76 7.44,12.94C7.25,13.22 6.95,13.4 6.53,13.11L6.49,13.08C6.13,12.83 6.09,12.5 6.5,11.91L6.67,11.66L6.54,11.57C6.26,11.38 6.1,11.41 5.92,11.67C5.77,11.89 5.68,12.05 5.6,12.2L5.59,12.22C5.57,12.25 5.54,12.27 5.5,12.24L5.38,12.16C5.38,12.16 5.34,12.1 5.36,12.05C5.43,11.9 5.52,11.73 5.67,11.51C5.99,11.05 6.35,11.02 6.74,11.29L7.9,12.08C7.9,12.08 7.95,12.16 7.92,12.19M6.88,11.82L6.71,12.07C6.44,12.47 6.45,12.64 6.69,12.8L6.73,12.83C6.97,12.99 7.11,12.92 7.24,12.73C7.35,12.58 7.39,12.41 7.41,12.19L6.87,11.82L6.88,11.82Z" style="fill:rgb(8,6,5);fill-rule:nonzero;"/>
                    <path d="M8.46,11.53L8.33,11.69C8.33,11.69 8.26,11.72 8.22,11.69L5.98,9.89C5.98,9.89 5.94,9.82 5.96,9.79L6.09,9.63C6.09,9.63 6.16,9.59 6.19,9.63L8.43,11.43C8.43,11.43 8.48,11.5 8.45,11.54" style="fill:rgb(8,6,5);fill-rule:nonzero;"/>
                    <path d="M10.22,9.68C9.76,10.11 9.17,10.16 8.56,9.5L8.2,9.12C7.59,8.47 7.67,7.88 8.13,7.45C8.59,7.02 9.18,6.98 9.79,7.63L10.15,8.01C10.76,8.66 10.68,9.24 10.22,9.68M9.52,7.89C9.06,7.4 8.68,7.4 8.36,7.7C8.04,8 8.01,8.38 8.47,8.88L8.82,9.26C9.28,9.75 9.66,9.75 9.99,9.45C10.31,9.15 10.34,8.77 9.87,8.28L9.51,7.9L9.52,7.89Z" style="fill:rgb(8,6,5);fill-rule:nonzero;"/>
                    <path d="M10.88,6.58C10.73,6.69 10.63,6.83 10.54,7.05L11.56,8.39C11.56,8.39 11.58,8.48 11.55,8.5L11.39,8.62C11.39,8.62 11.31,8.64 11.28,8.6L10.03,6.97C10.03,6.97 10.01,6.89 10.04,6.86L10.19,6.75C10.19,6.75 10.27,6.73 10.3,6.77L10.35,6.84C10.42,6.61 10.54,6.45 10.68,6.34C10.72,6.31 10.76,6.31 10.79,6.34L10.89,6.47C10.89,6.47 10.91,6.54 10.86,6.58" style="fill:rgb(8,6,5);fill-rule:nonzero;"/>
                    <path d="M12.7,5.36L12.59,5.46C12.69,5.49 12.81,5.55 12.93,5.74L12.95,5.77C13.19,6.14 13.09,6.5 12.57,6.83C12.39,6.94 12.26,6.99 12.13,7.01C12.09,7.07 12.09,7.13 12.12,7.18C12.16,7.24 12.2,7.25 12.29,7.22L12.88,7.03C13.27,6.9 13.65,6.79 13.85,7.11L13.87,7.14C14.08,7.47 13.99,7.8 13.43,8.16C12.89,8.5 12.52,8.45 12.31,8.12L12.29,8.09C12.17,7.9 12.17,7.68 12.23,7.52L12.2,7.52C12.06,7.55 11.94,7.46 11.88,7.36C11.82,7.27 11.8,7.14 11.86,7.02C11.69,6.99 11.56,6.9 11.45,6.73L11.43,6.7C11.24,6.4 11.22,5.99 11.8,5.62L12.54,5.15C12.54,5.15 12.64,5.13 12.67,5.18L12.72,5.27C12.72,5.27 12.73,5.34 12.7,5.37M12.64,5.93C12.51,5.73 12.32,5.63 11.95,5.86C11.57,6.1 11.6,6.33 11.72,6.52L11.74,6.55C11.83,6.7 12.03,6.85 12.42,6.6C12.79,6.37 12.79,6.17 12.66,5.96L12.64,5.93ZM13.55,7.3C13.47,7.17 13.32,7.18 12.97,7.3L12.52,7.45C12.48,7.6 12.46,7.73 12.58,7.9L12.6,7.93C12.72,8.12 12.91,8.17 13.29,7.93C13.68,7.68 13.7,7.52 13.58,7.33L13.56,7.3L13.55,7.3Z" style="fill:rgb(8,6,5);fill-rule:nonzero;"/>
                    <path d="M15.39,6.18L15.22,6.26C15.22,6.26 15.13,6.26 15.11,6.22L15.07,6.14C14.95,6.33 14.8,6.49 14.6,6.59C14.29,6.74 13.95,6.75 13.72,6.29L13.7,6.25C13.51,5.86 13.64,5.55 14.28,5.23L14.55,5.1L14.48,4.96C14.33,4.66 14.17,4.6 13.89,4.74C13.66,4.85 13.49,4.96 13.35,5.04L13.33,5.04C13.3,5.06 13.26,5.06 13.24,5.01L13.18,4.88C13.18,4.88 13.18,4.81 13.22,4.77C13.36,4.67 13.51,4.57 13.76,4.45C14.26,4.2 14.59,4.36 14.8,4.78L15.42,6.04C15.42,6.04 15.42,6.13 15.38,6.15M14.67,5.34L14.4,5.47C13.96,5.69 13.9,5.84 14.02,6.1L14.04,6.14C14.17,6.4 14.32,6.41 14.53,6.31C14.7,6.23 14.82,6.1 14.95,5.92L14.66,5.34L14.67,5.34Z" style="fill:rgb(8,6,5);fill-rule:nonzero;"/>
                    <path d="M17.39,5.41L17.21,5.48C17.21,5.48 17.12,5.48 17.11,5.43L16.66,4.19C16.52,3.81 16.35,3.74 16.06,3.84C15.9,3.9 15.75,4.02 15.6,4.17L16.18,5.77C16.18,5.77 16.18,5.86 16.13,5.87L15.94,5.94C15.94,5.94 15.86,5.94 15.84,5.89L15.14,3.96C15.14,3.96 15.14,3.87 15.18,3.86L15.37,3.79C15.37,3.79 15.45,3.79 15.47,3.84L15.5,3.91C15.67,3.72 15.81,3.6 16.04,3.52C16.49,3.35 16.8,3.57 16.99,4.07L17.44,5.32C17.44,5.32 17.44,5.41 17.39,5.42" style="fill:rgb(8,6,5);fill-rule:nonzero;"/>
                    <path d="M17.56,2.71L17.36,2.76C17.36,2.76 17.27,2.75 17.26,2.7L17.17,2.39C17.17,2.39 17.18,2.3 17.23,2.29L17.43,2.23C17.43,2.23 17.52,2.24 17.53,2.29L17.61,2.6C17.61,2.6 17.6,2.69 17.55,2.7M18.22,5.19L18.03,5.24C18.03,5.24 17.94,5.23 17.93,5.18L17.39,3.2C17.39,3.2 17.4,3.11 17.45,3.1L17.64,3.05C17.64,3.05 17.73,3.06 17.74,3.11L18.28,5.09C18.28,5.09 18.27,5.18 18.22,5.19" style="fill:rgb(8,6,5);fill-rule:nonzero;"/>
                    <path d="M20.15,4.77L18.95,5C18.78,5.03 18.69,4.94 18.67,4.83L18.67,4.75C18.63,4.64 18.65,4.58 18.7,4.48L19.47,3.01C19.47,3.01 19.48,2.98 19.47,2.97C19.47,2.95 19.46,2.94 19.42,2.95L18.46,3.14C18.46,3.14 18.37,3.12 18.36,3.08L18.33,2.94C18.33,2.94 18.35,2.86 18.39,2.85L19.55,2.62C19.71,2.59 19.79,2.65 19.81,2.77L19.83,2.87C19.85,2.95 19.83,3.02 19.78,3.1L18.99,4.61C18.99,4.61 18.98,4.65 18.98,4.66C18.98,4.68 18.98,4.69 19.02,4.69L20.07,4.49C20.07,4.49 20.16,4.51 20.16,4.55L20.19,4.69C20.19,4.69 20.17,4.78 20.13,4.78" style="fill:rgb(8,6,5);fill-rule:nonzero;"/>
                    <path d="M22.04,4.57L21.85,4.59C21.85,4.59 21.77,4.56 21.76,4.52L21.76,4.43C21.57,4.56 21.38,4.66 21.15,4.68C20.81,4.71 20.48,4.59 20.44,4.09L20.44,4.04C20.4,3.61 20.63,3.37 21.34,3.3L21.64,3.27L21.64,3.11C21.59,2.77 21.47,2.67 21.16,2.7C20.9,2.72 20.71,2.76 20.55,2.79L20.53,2.79C20.49,2.79 20.46,2.79 20.45,2.73L20.45,2.59C20.45,2.59 20.45,2.52 20.51,2.51C20.67,2.47 20.85,2.43 21.13,2.4C21.69,2.35 21.94,2.61 21.98,3.08L22.11,4.48C22.11,4.48 22.08,4.56 22.04,4.57M21.66,3.53L21.36,3.56C20.87,3.6 20.76,3.72 20.78,4.01L20.78,4.06C20.81,4.35 20.95,4.41 21.19,4.39C21.37,4.37 21.53,4.3 21.72,4.18L21.66,3.53Z" style="fill:rgb(8,6,5);fill-rule:nonzero;"/>
                    <path d="M23.58,4.55C23.5,4.56 23.39,4.57 23.32,4.57C22.95,4.57 22.77,4.48 22.76,4.04L22.74,2.63L22.35,2.59C22.35,2.59 22.27,2.56 22.27,2.52L22.27,2.41C22.27,2.41 22.3,2.34 22.34,2.34L22.73,2.34L22.73,1.94C22.73,1.9 22.76,1.87 22.8,1.86L23.01,1.83L23.02,1.83C23.02,1.83 23.08,1.86 23.08,1.9L23.08,2.34L23.52,2.34C23.56,2.34 23.6,2.37 23.6,2.42L23.6,2.56C23.6,2.56 23.57,2.64 23.52,2.64L23.08,2.64L23.1,4.06C23.1,4.28 23.16,4.31 23.32,4.31L23.55,4.31C23.61,4.31 23.63,4.32 23.64,4.36L23.64,4.5C23.64,4.5 23.62,4.56 23.57,4.57" style="fill:rgb(8,6,5);fill-rule:nonzero;"/>
                    <path d="M24.28,4.59L24.09,4.59C24.09,4.59 24.01,4.54 24.01,4.49L24.13,2.44C24.13,2.44 24.17,2.36 24.21,2.36L24.4,2.36C24.4,2.36 24.48,2.41 24.48,2.46L24.36,4.51C24.36,4.51 24.32,4.59 24.27,4.59M24.44,2.02L24.23,2.02C24.23,2.02 24.15,1.97 24.15,1.92L24.17,1.6C24.17,1.6 24.21,1.52 24.25,1.52L24.46,1.52C24.46,1.52 24.54,1.57 24.54,1.62L24.52,1.94C24.52,1.94 24.48,2.02 24.44,2.02" style="fill:rgb(8,6,5);fill-rule:nonzero;"/>
                    <path d="M25.67,4.75C25.08,4.67 24.83,4.24 24.91,3.65L24.95,3.35C25.03,2.76 25.38,2.41 25.97,2.5C26.56,2.58 26.81,3.01 26.73,3.6L26.69,3.9C26.61,4.49 26.25,4.83 25.67,4.75M26.38,3.55C26.44,3.14 26.31,2.86 25.93,2.81C25.56,2.76 25.36,2.99 25.3,3.41L25.26,3.71C25.21,4.12 25.33,4.4 25.71,4.45C26.08,4.5 26.28,4.27 26.34,3.86L26.38,3.56L26.38,3.55Z" style="fill:rgb(8,6,5);fill-rule:nonzero;"/>
                    <path d="M28.5,5.32L28.31,5.27C28.31,5.27 28.24,5.22 28.25,5.17L28.58,3.88C28.68,3.48 28.58,3.33 28.28,3.25C28.12,3.21 27.92,3.22 27.71,3.27L27.29,4.92C27.29,4.92 27.23,4.99 27.19,4.98L27,4.93C27,4.93 26.94,4.88 26.94,4.83L27.45,2.84C27.45,2.84 27.5,2.77 27.54,2.78L27.74,2.83C27.74,2.83 27.81,2.88 27.79,2.93L27.77,3C28.02,2.93 28.21,2.92 28.44,2.98C28.91,3.1 29.05,3.45 28.91,3.97L28.58,5.26C28.58,5.26 28.52,5.33 28.48,5.32" style="fill:rgb(8,6,5);fill-rule:nonzero;"/>
                    <path d="M31.91,3.63L31.73,3.56C31.56,3.49 31.48,3.52 31.4,3.72L31.29,3.99L31.68,4.15C31.68,4.15 31.74,4.21 31.72,4.25L31.66,4.39C31.66,4.39 31.61,4.44 31.56,4.42L31.17,4.26L30.47,5.96C30.47,5.96 30.41,6.02 30.37,6L30.19,5.92C30.19,5.92 30.13,5.85 30.15,5.82L30.85,4.12L30.51,3.93C30.51,3.93 30.45,3.87 30.47,3.83L30.51,3.73C30.51,3.73 30.57,3.68 30.61,3.69L30.97,3.84L31.08,3.57C31.25,3.17 31.49,3.13 31.81,3.27C31.91,3.31 31.97,3.35 32.01,3.38C32.05,3.41 32.07,3.44 32.06,3.47L32.01,3.59C32.01,3.59 31.96,3.63 31.92,3.62" style="fill:rgb(8,6,5);fill-rule:nonzero;"/>
                    <path d="M31.81,6.72C31.29,6.44 31.2,5.96 31.47,5.43L31.61,5.16C31.89,4.64 32.33,4.43 32.86,4.71C33.38,4.98 33.47,5.47 33.2,6L33.06,6.27C32.78,6.79 32.33,7 31.81,6.72M32.89,5.83C33.08,5.47 33.06,5.16 32.72,4.98C32.39,4.81 32.12,4.96 31.93,5.32L31.79,5.59C31.6,5.95 31.62,6.26 31.96,6.44C32.29,6.61 32.56,6.46 32.75,6.1L32.89,5.83Z" style="fill:rgb(8,6,5);fill-rule:nonzero;"/>
                    <path d="M34.75,6.18C34.59,6.08 34.43,6.03 34.19,6.02L33.28,7.44C33.28,7.44 33.21,7.49 33.17,7.46L33,7.35C33,7.35 32.96,7.28 32.98,7.24L34.09,5.52C34.09,5.52 34.16,5.47 34.2,5.49L34.36,5.59C34.36,5.59 34.4,5.66 34.38,5.7L34.33,5.77C34.58,5.77 34.76,5.82 34.91,5.91C34.96,5.94 34.97,5.98 34.94,6.02L34.85,6.16C34.85,6.16 34.79,6.2 34.74,6.17" style="fill:rgb(8,6,5);fill-rule:nonzero;"/>
                    <path d="M35.3,9.08C35.09,8.9 34.95,8.74 34.83,8.6C34.79,8.55 34.79,8.53 34.82,8.49L34.93,8.37C34.93,8.37 35,8.34 35.02,8.37C35.15,8.5 35.37,8.7 35.51,8.82C35.88,9.14 36.1,9.07 36.28,8.86C36.41,8.71 36.4,8.55 36.27,8.14L36.13,7.71C36,7.3 35.99,7.02 36.2,6.78C36.52,6.41 36.93,6.47 37.39,6.87C37.57,7.03 37.79,7.25 37.89,7.36C37.92,7.39 37.92,7.43 37.89,7.46L37.78,7.59C37.78,7.59 37.72,7.62 37.69,7.59C62.817,12.65 62.817,12.65 37.69,7.59C37.56,7.47 37.36,7.27 37.18,7.12C36.87,6.85 36.67,6.8 36.48,7.02C36.36,7.16 36.38,7.34 36.49,7.68L36.63,8.09C36.8,8.6 36.78,8.88 36.57,9.12C36.32,9.41 35.89,9.6 35.29,9.08" style="fill:rgb(8,6,5);fill-rule:nonzero;"/>
                    <path d="M37,10.67C36.94,10.62 36.86,10.55 36.8,10.5C36.54,10.24 36.49,10.04 36.8,9.73L37.8,8.75L37.56,8.44C37.56,8.44 37.53,8.37 37.56,8.33L37.64,8.25C37.64,8.25 37.71,8.22 37.74,8.25L38.01,8.53L38.29,8.25C38.29,8.25 38.36,8.22 38.4,8.25L38.57,8.38C38.59,8.4 38.59,8.44 38.57,8.47L38.26,8.78L38.57,9.09C38.57,9.09 38.6,9.17 38.57,9.2L38.47,9.3C38.47,9.3 38.39,9.33 38.36,9.3L38.06,8.99L37.06,9.97C36.9,10.12 36.92,10.19 37.03,10.3L37.19,10.46C37.19,10.46 37.24,10.53 37.21,10.56L37.11,10.66C37.11,10.66 37.05,10.69 37.01,10.66" style="fill:rgb(8,6,5);fill-rule:nonzero;"/>
                    <path d="M38.17,12.06L38.05,11.92C38.05,11.92 38.03,11.84 38.06,11.81L38.13,11.75C37.92,11.67 37.73,11.57 37.59,11.39C37.37,11.13 37.29,10.79 37.68,10.47L37.72,10.44C38.06,10.17 38.39,10.22 38.84,10.78L39.03,11.01L39.16,10.91C39.42,10.7 39.44,10.53 39.24,10.29C39.07,10.09 38.94,9.95 38.82,9.83L38.81,9.81C38.79,9.78 38.77,9.75 38.81,9.71L38.92,9.62C38.92,9.62 38.99,9.6 39.03,9.64C39.16,9.75 39.29,9.88 39.47,10.09C39.82,10.52 39.75,10.88 39.38,11.18L38.29,12.07C38.29,12.07 38.2,12.09 38.18,12.06M38.83,11.17L38.64,10.94C38.33,10.56 38.17,10.53 37.95,10.71L37.91,10.74C37.68,10.92 37.71,11.08 37.86,11.26C37.98,11.4 38.12,11.5 38.33,11.58L38.83,11.17Z" style="fill:rgb(8,6,5);fill-rule:nonzero;"/>
                    <path d="M39.34,13.81L39.24,13.65C39.24,13.65 39.23,13.56 39.26,13.54L40.37,12.82C40.71,12.6 40.74,12.42 40.57,12.16C40.48,12.02 40.32,11.89 40.14,11.79L38.71,12.71C38.71,12.71 38.62,12.72 38.6,12.69L38.49,12.52C38.49,12.52 38.48,12.44 38.52,12.41L40.24,11.29C40.24,11.29 40.33,11.27 40.35,11.31L40.46,11.48C40.46,11.48 40.47,11.56 40.43,11.59L40.37,11.63C40.6,11.75 40.74,11.87 40.87,12.07C41.13,12.48 41,12.82 40.55,13.11L39.44,13.83C39.44,13.83 39.35,13.84 39.33,13.8" style="fill:rgb(8,6,5);fill-rule:nonzero;"/>
                    <path d="M40.33,15.63C40.18,15.43 40.05,15.22 39.94,15C39.67,14.46 39.9,14.04 40.44,13.77L40.7,13.64C41.27,13.36 41.71,13.46 41.97,13.99C42.03,14.1 42.1,14.28 42.15,14.43L42.82,14.1C42.82,14.1 42.9,14.1 42.92,14.13L43.01,14.31C43.01,14.31 43.01,14.39 42.97,14.41L40.45,15.67C40.45,15.67 40.37,15.7 40.33,15.64M41.88,14.56C41.84,14.43 41.75,14.24 41.69,14.13C41.51,13.78 41.24,13.77 40.85,13.96L40.59,14.09C40.2,14.29 40.03,14.51 40.21,14.86C40.27,14.98 40.37,15.15 40.44,15.27L41.87,14.56L41.88,14.56Z" style="fill:rgb(8,6,5);fill-rule:nonzero;"/>
                    <path d="M41.02,17.51L40.96,17.34C40.96,17.34 40.96,17.25 41.01,17.24L41.09,17.21C40.92,17.07 40.77,16.91 40.69,16.7C40.57,16.38 40.6,16.03 41.07,15.86L41.12,15.84C41.53,15.69 41.82,15.84 42.07,16.52L42.17,16.8L42.32,16.74C42.64,16.62 42.71,16.47 42.6,16.18C42.51,15.93 42.43,15.76 42.36,15.61L42.36,15.59C42.35,15.56 42.35,15.52 42.4,15.5L42.53,15.45C42.53,15.45 42.6,15.45 42.63,15.5C42.71,15.64 42.8,15.81 42.9,16.07C43.1,16.6 42.9,16.9 42.46,17.07L41.14,17.56C41.14,17.56 41.05,17.56 41.04,17.51M41.93,16.88L41.83,16.6C41.66,16.14 41.51,16.06 41.24,16.16L41.2,16.18C40.93,16.28 40.9,16.44 40.98,16.66C41.04,16.83 41.15,16.97 41.32,17.11L41.93,16.88Z" style="fill:rgb(8,6,5);fill-rule:nonzero;"/>
                    <path d="M43.28,18.37C43.23,18.19 43.14,18.04 42.97,17.88L41.34,18.33C41.34,18.33 41.25,18.32 41.24,18.27L41.19,18.08C41.19,18.08 41.21,18 41.25,17.99L43.23,17.44C43.23,17.44 43.32,17.44 43.33,17.49L43.38,17.67C43.38,17.67 43.37,17.75 43.32,17.77L43.24,17.79C43.43,17.95 43.53,18.11 43.58,18.29C43.6,18.35 43.58,18.38 43.53,18.39L43.37,18.43C43.37,18.43 43.3,18.43 43.28,18.37" style="fill:rgb(8,6,5);fill-rule:nonzero;"/>
                    <path d="M41.8,20.66C41.71,20.42 41.64,20.19 41.6,19.94C41.49,19.35 41.82,19.01 42.42,18.89L42.71,18.84C43.33,18.73 43.73,18.95 43.84,19.52C43.86,19.64 43.89,19.83 43.89,19.99L44.63,19.85C44.63,19.85 44.71,19.87 44.72,19.91L44.76,20.11C44.76,20.11 44.74,20.19 44.7,20.19L41.93,20.71C41.88,20.71 41.85,20.71 41.82,20.64M43.59,20.05C43.59,19.91 43.55,19.71 43.53,19.58C43.46,19.19 43.19,19.11 42.77,19.19L42.49,19.24C42.06,19.32 41.84,19.49 41.91,19.88C41.94,20.02 41.98,20.21 42.02,20.34L43.59,20.05Z" style="fill:rgb(8,6,5);fill-rule:nonzero;"/>
                    <path d="M41.85,21.51L41.83,21.32C41.83,21.32 41.86,21.24 41.9,21.23L43.94,21.02C43.94,21.02 44.02,21.05 44.03,21.09L44.05,21.28C44.05,21.28 44.02,21.36 43.98,21.37L41.94,21.58C41.94,21.58 41.86,21.55 41.85,21.51M44.41,21.25L44.39,21.05C44.39,21.05 44.42,20.97 44.46,20.96L44.78,20.93C44.78,20.93 44.86,20.96 44.87,21L44.89,21.2C44.89,21.2 44.86,21.28 44.82,21.29L44.5,21.32C44.5,21.32 44.42,21.29 44.41,21.25" style="fill:rgb(8,6,5);fill-rule:nonzero;"/>
                    <path d="M41.95,23.48L41.91,22.26C41.91,22.09 42.01,22.01 42.12,22.01L42.2,22.01C42.31,22.01 42.37,22.03 42.46,22.09L43.79,23.09C43.79,23.09 43.81,23.11 43.83,23.11C43.85,23.11 43.86,23.11 43.86,23.07L43.83,22.09C43.83,22.09 43.86,22.01 43.91,22.01L44.05,22.01C44.05,22.01 44.13,22.04 44.13,22.08L44.17,23.27C44.17,23.44 44.1,23.5 43.98,23.5L43.88,23.5C43.8,23.5 43.73,23.48 43.66,23.42L42.3,22.4C42.3,22.4 42.27,22.38 42.25,22.38C42.23,22.38 42.22,22.38 42.22,22.41L42.25,23.48C42.25,23.48 42.22,23.56 42.17,23.56L42.03,23.56C42.03,23.56 41.95,23.53 41.95,23.48" style="fill:rgb(8,6,5);fill-rule:nonzero;"/>
                    <path d="M41.85,25.41L41.85,25.22C41.85,25.22 41.9,25.14 41.95,25.15L42.04,25.15C41.94,24.95 41.87,24.75 41.89,24.52C41.91,24.18 42.09,23.87 42.59,23.91L42.64,23.91C43.07,23.94 43.27,24.21 43.22,24.93L43.2,25.23L43.36,25.23C43.7,25.26 43.82,25.16 43.84,24.84C43.86,24.58 43.86,24.39 43.85,24.22L43.85,24.2C43.85,24.16 43.87,24.13 43.92,24.13L44.06,24.13C44.06,24.13 44.13,24.17 44.13,24.23C44.15,24.4 44.16,24.58 44.13,24.86C44.09,25.42 43.79,25.62 43.32,25.59L41.92,25.49C41.92,25.49 41.84,25.45 41.84,25.4M42.94,25.21L42.96,24.91C42.99,24.42 42.9,24.29 42.61,24.27L42.56,24.27C42.27,24.25 42.18,24.38 42.17,24.61C42.16,24.79 42.2,24.96 42.29,25.16L42.94,25.21Z" style="fill:rgb(8,6,5);fill-rule:nonzero;"/>
                    <path d="M41.61,26.92C41.61,26.84 41.61,26.73 41.63,26.66C41.69,26.29 41.81,26.13 42.25,26.2L43.64,26.42L43.75,26.04C43.75,26.04 43.79,25.97 43.83,25.98L43.94,26C43.94,26 44.01,26.04 44,26.09L43.94,26.48L44.33,26.54C44.33,26.54 44.4,26.58 44.4,26.62L44.4,26.84C44.4,26.87 44.36,26.9 44.32,26.89L43.89,26.82L43.82,27.25C43.82,27.25 43.77,27.32 43.73,27.32L43.59,27.3C43.59,27.3 43.52,27.25 43.52,27.21L43.59,26.78L42.2,26.56C41.98,26.53 41.94,26.58 41.92,26.74L41.89,26.96C41.89,27.02 41.86,27.04 41.82,27.04L41.68,27.02C41.68,27.02 41.62,26.99 41.62,26.94" style="fill:rgb(8,6,5);fill-rule:nonzero;"/>
                    <path d="M41.47,27.61L41.51,27.42C41.51,27.42 41.56,27.35 41.61,27.36L43.62,27.81C43.62,27.81 43.69,27.86 43.68,27.91L43.64,28.1C43.64,28.1 43.59,28.17 43.54,28.16L41.53,27.71C41.53,27.71 41.46,27.66 41.47,27.61M43.98,28.17L44.02,27.97C44.02,27.97 44.07,27.9 44.12,27.91L44.43,27.98C44.43,27.98 44.5,28.03 44.49,28.08L44.45,28.28C44.45,28.28 44.4,28.35 44.35,28.34L44.04,28.27C44.04,28.27 43.97,28.22 43.98,28.17" style="fill:rgb(8,6,5);fill-rule:nonzero;"/>
                    <path d="M41.09,28.94C41.26,28.37 41.72,28.2 42.29,28.37L42.58,28.46C43.15,28.63 43.43,29.04 43.26,29.6C43.09,30.17 42.62,30.34 42.06,30.17L41.77,30.08C41.2,29.91 40.92,29.5 41.09,28.93M42.16,29.84C42.55,29.96 42.85,29.88 42.96,29.52C43.07,29.16 42.87,28.93 42.48,28.81L42.19,28.72C41.8,28.6 41.5,28.68 41.39,29.04C41.28,29.4 41.48,29.63 41.87,29.76L42.16,29.85L42.16,29.84Z" style="fill:rgb(8,6,5);fill-rule:nonzero;"/>
                    <path d="M40.08,31.62L40.16,31.44C40.16,31.44 40.23,31.38 40.27,31.4L41.48,31.93C41.85,32.09 42.02,32.02 42.14,31.74C42.21,31.58 42.22,31.39 42.21,31.18L40.65,30.5C40.65,30.5 40.59,30.44 40.61,30.39L40.69,30.21C40.69,30.21 40.75,30.16 40.8,30.17L42.68,30.99C42.68,30.99 42.74,31.05 42.72,31.09L42.64,31.27C42.64,31.27 42.58,31.33 42.54,31.31L42.47,31.28C42.5,31.53 42.47,31.72 42.38,31.94C42.19,32.38 41.82,32.46 41.33,32.25L40.12,31.72C40.12,31.72 40.06,31.65 40.08,31.61" style="fill:rgb(8,6,5);fill-rule:nonzero;"/>
                </g>
            </g>
        </g>
    </g>
</svg>
