<?xml version="1.0" encoding="UTF-8" standalone="no"?><!DOCTYPE svg PUBLIC "-//W3C//DTD SVG 1.1//EN" "http://www.w3.org/Graphics/SVG/1.1/DTD/svg11.dtd"><svg width="100%" height="100%" viewBox="0 0 472 468" version="1.1" xmlns="http://www.w3.org/2000/svg" xmlns:xlink="http://www.w3.org/1999/xlink" xml:space="preserve" xmlns:serif="http://www.serif.com/" style="fill-rule:evenodd;clip-rule:evenodd;stroke-linejoin:round;stroke-miterlimit:2;"><path id="Layer1" d="M327.246,52.707l-27.246,0l22.042,16.014l-8.419,25.912l22.042,-16.014l22.042,16.014l-8.419,-25.912l22.042,-16.014l-27.246,0l-8.419,-25.912l-8.419,25.912Z" style="fill:#080605;"/><path id="Layer11" serif:id="Layer1" d="M400.451,125.912l-27.246,0l22.042,16.014l-8.419,25.912l22.042,-16.014l22.042,16.014l-8.419,-25.912l22.042,-16.014l-27.246,0l-8.419,-25.912l-8.419,25.912Z" style="fill:#080605;"/><path id="Layer12" serif:id="Layer1" d="M222.042,41.926l-8.419,25.912l22.042,-16.014l22.042,16.014l-8.419,-25.912l22.042,-16.014l-27.246,0l-8.419,-25.912l-8.419,25.912l-27.246,0l22.042,16.014Z" style="fill:#080605;"/><path id="Layer13" serif:id="Layer1" d="M327.246,399.117l-27.246,0l22.042,16.014l-8.419,25.912l22.042,-16.014l22.042,16.014l-8.419,-25.912l22.042,-16.014l-27.246,0l-8.419,-25.912l-8.419,25.912Z" style="fill:#080605;"/><path id="Layer14" serif:id="Layer1" d="M122.042,68.721l-8.419,25.912l22.042,-16.014l22.042,16.014l-8.419,-25.912l22.042,-16.014l-27.246,0l-8.419,-25.912l-8.419,25.912l-27.246,0l22.042,16.014Z" style="fill:#080605;"/><path id="Layer15" serif:id="Layer1" d="M222.042,441.926l-8.419,25.912l22.042,-16.014l22.042,16.014l-8.419,-25.912l22.042,-16.014l-27.246,0l-8.419,-25.912l-8.419,25.912l-27.246,0l22.042,16.014Z" style="fill:#080605;"/><path id="Layer16" serif:id="Layer1" d="M22.042,241.926l-8.419,25.912l22.042,-16.014l22.042,16.014l-8.419,-25.912l22.042,-16.014l-27.246,0l-8.419,-25.912l-8.419,25.912l-27.246,0l22.042,16.014Z" style="fill:#080605;"/><path id="Layer17" serif:id="Layer1" d="M427.246,225.912l-27.246,0l22.042,16.014l-8.419,25.912l22.042,-16.014l22.042,16.014l-8.419,-25.912l22.042,-16.014l-27.246,0l-8.419,-25.912l-8.419,25.912Z" style="fill:#080605;"/><path id="Layer18" serif:id="Layer1" d="M48.837,341.926l-8.419,25.912l22.042,-16.014l22.042,16.014l-8.419,-25.912l22.042,-16.014l-27.246,0l-8.419,-25.912l-8.419,25.912l-27.246,0l22.042,16.014Z" style="fill:#080605;"/><path id="Layer19" serif:id="Layer1" d="M122.042,415.131l-8.419,25.912l22.042,-16.014l22.042,16.014l-8.419,-25.912l22.042,-16.014l-27.246,0l-8.419,-25.912l-8.419,25.912l-27.246,0l22.042,16.014Z" style="fill:#080605;"/><path id="Layer110" serif:id="Layer1" d="M206.813,208.742c0,-20.014 11.705,-33.497 28.955,-33.497c17.249,0 28.954,13.483 28.954,33.497l0,12.746c6.16,0.422 9.241,4.214 9.241,11.904l0,43.189c0,8.111 -3.492,11.903 -10.781,11.903l-54.829,0c-7.29,0 -10.781,-3.792 -10.781,-11.903l0,-43.189c0,-7.69 3.081,-11.482 9.241,-11.904l0,-12.746Zm46.82,-1.264c0,-12.746 -7.187,-21.173 -17.865,-21.173c-10.679,0 -17.866,8.427 -17.866,21.173l0,13.905l35.731,0l0,-13.905Z" style="fill:#080605;"/><path id="Layer111" serif:id="Layer1" d="M48.837,141.926l-8.419,25.912l22.042,-16.014l22.042,16.014l-8.419,-25.912l22.042,-16.014l-27.246,0l-8.419,-25.912l-8.419,25.912l-27.246,0l22.042,16.014Z" style="fill:#080605;"/><path id="Layer112" serif:id="Layer1" d="M400.451,325.912l-27.246,0l22.042,16.014l-8.419,25.912l22.042,-16.014l22.042,16.014l-8.419,-25.912l22.042,-16.014l-27.246,0l-8.419,-25.912l-8.419,25.912Z" style="fill:#080605;"/></svg>