<?xml version="1.0" encoding="UTF-8" standalone="no"?><!DOCTYPE svg PUBLIC "-//W3C//DTD SVG 1.1//EN" "http://www.w3.org/Graphics/SVG/1.1/DTD/svg11.dtd"><svg width="100%" height="100%" viewBox="0 0 836 1014" version="1.1" xmlns="http://www.w3.org/2000/svg" xmlns:xlink="http://www.w3.org/1999/xlink" xml:space="preserve" xmlns:serif="http://www.serif.com/" style="fill-rule:evenodd;clip-rule:evenodd;stroke-linejoin:round;stroke-miterlimit:2;"><g><g><g><path d="M382.513,5.808c-61.329,6.996 -125.227,29.936 -174.836,62.638c-88.14,58.408 -146.58,137.315 -175.157,237.372c-18.784,65.566 -21.032,139.755 -6.422,208.087c24.403,113.561 99.86,216.059 201.647,273.816c42.063,23.916 95.847,41.975 145.135,48.809c29.22,3.905 91.191,4.067 115.273,0c58.6,-9.599 104.195,-25.869 148.988,-52.713c130.204,-78.419 204.537,-210.853 204.537,-364.274c0,-82.161 -22.958,-159.767 -67.109,-226.797c-18.623,-28.309 -32.27,-45.229 -54.104,-67.681c-63.416,-64.59 -147.864,-106.403 -238.252,-117.791c-28.096,-3.417 -75.939,-4.23 -99.7,-1.464Zm91.833,65.892c156.694,20.337 280.797,146.914 300.705,306.518c5.138,40.674 2.087,90.621 -8.027,131.295c-24.243,97.292 -90.87,181.242 -180.294,227.285c-138.713,71.098 -302.15,42.301 -410.198,-72.237c-53.462,-56.455 -85.893,-128.366 -94.402,-209.063c-2.569,-24.079 -0.963,-67.844 3.211,-91.923c14.289,-81.348 52.338,-150.818 112.383,-205.484c51.054,-46.531 116.557,-76.955 185.753,-86.391c22.477,-3.254 66.788,-3.091 90.87,0Z" style="fill-rule:nonzero;"/><path d="M577.578,166.714c-0.482,1.464 1.605,7.484 4.816,13.666c4.495,8.623 5.619,12.853 5.619,19.849c0,8.623 -5.298,25.055 -8.027,25.055c-0.642,0 -1.927,-1.79 -2.89,-4.067c-4.335,-9.599 -21.353,-11.551 -27.132,-3.091c-3.211,4.718 -4.816,6.182 -14.449,14.643c-10.114,8.623 -12.041,19.523 -7.706,40.836l1.124,5.044l-6.904,-1.627c-3.853,-0.813 -11.559,-1.139 -16.857,-0.651l-9.793,0.976l-8.348,-12.853l-8.509,-13.016l1.927,-18.71c3.05,-30.099 -0.963,-32.864 -5.459,-3.742c-3.371,21.313 -3.211,26.519 1.445,39.21c2.248,6.02 4.014,11.226 4.014,11.551c0,1.302 -13.165,-5.694 -16.376,-8.46c-1.445,-1.464 -5.619,-11.389 -9.312,-22.289c-6.904,-20.825 -8.83,-25.218 -10.596,-23.428c-1.766,1.952 8.67,46.694 12.202,51.737l3.211,4.718l-4.495,-1.464c-8.188,-2.278 -11.72,-4.881 -25.688,-19.361c-14.128,-14.643 -18.784,-15.781 -9.793,-2.278c12.362,18.222 23.44,27.658 40.297,34.491c9.793,4.067 13.968,7.484 11.559,9.924c-0.803,0.651 -24.724,-2.766 -55.228,-8.135c-93.76,-16.595 -131.328,-20.174 -201.487,-20.012c-47.843,0.325 -74.173,2.115 -79.471,5.369c-4.014,2.44 0.803,9.111 13.165,18.385c20.871,15.456 42.706,28.797 62.774,38.559c37.247,18.059 59.402,23.591 94.241,23.591c26.009,0 21.192,1.464 54.747,-16.595c10.757,-5.694 10.757,-5.694 59.242,-10.575c26.811,-2.603 49.127,-4.23 49.93,-3.417c0.642,0.651 3.211,5.532 5.459,10.738l4.014,9.436l-3.532,-1.302c-2.087,-0.651 -9.151,-1.302 -15.734,-1.302c-16.055,0 -26.811,5.369 -51.375,25.706c-42.063,34.654 -70.159,68.495 -99.86,119.906c-14.449,24.892 -44.632,87.205 -44.632,92.085c0,2.603 7.706,-0.813 48.164,-21.15c68.072,-34.166 109.975,-64.59 147.382,-107.216c38.21,-43.602 45.916,-60.848 38.21,-85.252l-1.124,-3.579l9.312,4.067c5.138,2.278 9.954,4.718 10.757,5.532c0.642,0.651 0.161,13.178 -1.284,27.984c-1.445,14.48 -3.211,35.142 -4.174,45.717c-1.927,22.289 -5.619,34.654 -14.61,49.297c-8.67,13.829 -11.078,22.615 -11.078,40.511c0,15.944 5.459,48.32 11.72,68.332c8.027,26.519 45.435,92.411 58.921,103.799c6.743,5.857 9.151,5.532 11.238,-1.627c2.89,-10.087 5.138,-62.638 4.174,-94.851c-2.087,-61.499 -6.101,-98.268 -19.587,-180.592c-4.816,-29.122 -8.67,-54.828 -8.67,-57.431c0,-8.623 4.014,-4.23 11.88,12.69c7.706,16.92 7.867,16.92 23.279,29.285c8.509,6.671 15.894,12.202 16.697,12.202c3.532,0 -0.321,-5.369 -11.88,-16.595c-9.793,-9.436 -13.647,-14.317 -16.055,-20.825l-3.211,-8.46l4.977,3.579c5.298,3.905 48.806,14.48 50.893,12.528c1.927,-1.952 -2.087,-3.905 -23.922,-11.226l-20.389,-6.833l-4.335,-7.972c-2.248,-4.23 -3.853,-8.297 -3.371,-8.786c0.482,-0.488 6.422,0.976 13.004,3.254c13.004,4.393 16.536,4.393 43.99,-0.651c17.66,-3.254 13.486,-5.044 -10.436,-4.393l-22.316,0.488l-11.399,-7.972l-11.399,-7.809l0.161,-17.083c0,-16.432 0.161,-16.92 3.371,-15.944c1.927,0.488 8.188,1.464 14.128,1.952c13.647,1.139 23.44,-3.091 29.862,-13.178c2.408,-3.579 4.977,-6.996 5.94,-7.321c0.803,-0.325 3.532,-2.766 5.94,-5.206c7.225,-7.321 5.138,-20.825 -4.174,-25.869c-2.248,-1.139 -4.174,-2.603 -4.174,-3.091c0,-1.464 22.637,-9.924 26.169,-9.924c1.445,0 8.509,2.929 15.573,6.508c7.064,3.579 13.807,6.508 15.252,6.508c6.743,0 -1.124,-6.996 -15.573,-13.829c-11.72,-5.532 -21.032,-5.369 -35.481,0.976l-11.559,4.881l-4.014,-5.369c-4.816,-6.508 -13.486,-15.456 -20.389,-20.825l-5.138,-4.067l4.656,-11.389c6.101,-14.968 6.101,-23.916 0.161,-37.094c-5.78,-12.853 -10.757,-19.361 -12.202,-15.781Z" style="fill-rule:nonzero;"/></g><g><path d="M72.468,853.583c-3.868,0.543 -9.773,1.9 -13.098,2.986c-12.962,4.343 -19.41,11.062 -21.921,22.803c-1.425,6.854 -1.493,94.063 0,100.917c3.665,17.238 14.795,24.296 42.756,27.011c8.958,0.882 28.843,0.475 38.344,-0.747c16.016,-2.036 27.282,-7.94 32.101,-16.831c4.208,-7.805 4.208,-7.397 4.208,-59.179c0,-50.628 -0.068,-51.511 -3.529,-58.908c-2.375,-5.022 -7.397,-9.841 -13.302,-12.623c-10.044,-4.819 -21.446,-6.515 -43.231,-6.447c-9.026,0.068 -18.188,0.475 -22.328,1.018Zm42.009,14.931c11.266,1.765 16.831,5.09 19.885,11.673c1.493,3.19 1.493,3.258 1.493,50.017c0,52.257 0.271,48.932 -4.819,54.632c-7.058,7.737 -35.698,10.859 -57.211,6.176c-10.112,-2.24 -14.32,-5.226 -17.238,-12.284l-1.493,-3.733l0,-44.452c0,-40.041 0.136,-44.792 1.154,-48.185c2.918,-9.366 10.112,-13.166 28.368,-14.931c7.33,-0.747 22.057,-0.204 29.861,1.086Z" style="fill-rule:nonzero;"/><path d="M434.127,852.905c-14.659,1.765 -22.328,3.801 -28.232,7.601c-6.651,4.276 -10.655,10.316 -12.487,18.46c-1.154,5.361 -1.765,125.213 -0.611,126.639c1.086,1.357 16.356,1.357 17.51,0.068c0.475,-0.679 0.814,-9.433 0.882,-28.029l0.204,-27.079l79.404,0l0.204,27.079c0.068,18.595 0.407,27.35 0.882,28.029c1.154,1.289 16.424,1.289 17.51,-0.068c0.611,-0.747 0.747,-16.084 0.543,-62.301c-0.271,-68.681 -0.136,-66.509 -5.158,-74.314c-5.022,-7.805 -13.098,-12.216 -27.214,-14.863c-4.14,-0.814 -10.723,-1.154 -23.414,-1.289c-9.705,-0.136 -18.731,-0.068 -20.021,0.068Zm34.612,15.27c10.859,1.425 16.763,4.751 20.021,11.062l2.036,4.072l0,50.289l-38.344,0.204c-21.106,0.068 -39.023,0 -39.905,-0.204l-1.561,-0.407l0.204,-24.907c0.204,-23.55 0.271,-25.043 1.629,-27.961c3.665,-8.008 10.655,-11.334 26.468,-12.827c7.194,-0.679 22.192,-0.339 29.454,0.679Z" style="fill-rule:nonzero;"/><path d="M583.433,852.973c-22.939,2.172 -32.915,6.108 -39.43,15.609c-4.14,5.972 -4.886,9.366 -5.226,24.228c-0.339,15.609 0.339,19.546 4.615,26.061c2.918,4.547 6.108,7.397 11.469,10.18c5.701,2.918 9.433,3.801 39.43,8.619c15.134,2.443 28.979,4.954 30.811,5.633c4.411,1.561 8.755,5.429 10.451,9.501c1.9,4.411 2.511,12.08 1.561,19.478c-1.765,12.895 -5.226,16.152 -20.428,19.41c-13.03,2.783 -33.526,1.968 -46.692,-1.832c-4.072,-1.154 -8.415,-4.683 -10.316,-8.415c-1.832,-3.597 -2.715,-9.501 -2.715,-18.392c0,-4.615 -0.271,-8.076 -0.679,-8.212c-0.339,-0.136 -4.479,-0.136 -9.162,0l-8.483,0.204l0,10.316c0,11.537 0.543,15.949 2.715,21.649c1.765,4.819 6.922,10.587 11.741,13.37c4.479,2.511 12.827,5.158 20.156,6.312c7.94,1.222 40.38,1.222 48.185,-0.068c21.242,-3.461 31.558,-12.08 33.933,-28.436c1.018,-7.058 0.814,-23.55 -0.339,-28.504c-2.511,-10.655 -9.433,-17.713 -21.106,-21.514c-3.054,-1.018 -17.238,-3.665 -34.137,-6.447c-15.881,-2.647 -30.404,-5.226 -32.169,-5.837c-4.819,-1.561 -8.212,-5.158 -9.637,-10.044c-0.95,-3.258 -1.086,-5.701 -0.814,-12.895c0.204,-4.886 0.747,-10.112 1.289,-11.605c1.289,-3.936 6.244,-8.687 10.723,-10.384c16.763,-6.176 51.511,-4.615 61.148,2.783c4.479,3.393 6.108,7.33 6.854,16.695c0.339,4.343 0.814,8.076 1.154,8.415c0.271,0.271 4.343,0.407 8.958,0.339l8.415,-0.204l0.204,-6.379c0.271,-7.94 -1.222,-16.016 -3.936,-21.514c-5.158,-10.451 -17.034,-16.016 -38.344,-17.849c-7.533,-0.679 -24.635,-0.814 -30.201,-0.271Z" style="fill-rule:nonzero;"/><path d="M184.651,854.669c-0.339,0.475 -0.475,28.232 -0.407,61.623c0.271,65.627 0.271,66.102 3.936,73.499c2.307,4.819 7.262,9.773 12.148,12.284c8.212,4.14 21.785,6.244 35.969,5.633c15.27,-0.679 24.093,-3.936 32.44,-12.08l4.615,-4.479l4.547,4.547c5.294,5.294 11.741,8.687 20.156,10.655c4.276,0.95 8.076,1.222 17.645,1.154c13.913,0 22.464,-1.425 29.997,-5.022c5.09,-2.375 10.248,-7.33 12.759,-12.216c3.665,-7.262 3.665,-7.465 3.733,-73.839c0.068,-33.662 -0.136,-61.555 -0.339,-61.894c-0.611,-1.018 -16.152,-0.882 -17.17,0.136c-0.611,0.611 -0.814,14.523 -0.814,58.569c0,36.444 -0.271,59.247 -0.679,62.03c-1.697,10.248 -6.379,14.32 -19.342,16.695c-9.908,1.9 -24.296,0.543 -31.219,-2.85c-3.393,-1.697 -6.379,-5.022 -8.008,-8.958l-1.493,-3.801l-0.204,-60.333c-0.136,-42.349 -0.407,-60.672 -0.95,-61.283c-1.018,-1.289 -16.356,-1.222 -17.442,0c-0.475,0.679 -0.747,18.867 -0.882,61.623l-0.204,60.672l-1.629,3.597c-2.036,4.479 -6.379,8.348 -11.062,9.908c-6.244,2.036 -15.949,2.783 -24.16,1.9c-10.044,-1.018 -13.98,-2.443 -17.917,-6.312c-5.904,-5.904 -5.565,-2.036 -5.972,-71.192l-0.339,-60.74l-8.619,-0.204c-6.379,-0.136 -8.687,0.068 -9.094,0.679Z" style="fill-rule:nonzero;"/><path d="M685.708,854.33c-0.271,0.204 -0.475,34.408 -0.475,75.942l0,75.603l1.561,0.339c0.814,0.204 4.886,0.339 8.958,0.204l7.465,-0.204l0.204,-20.971c0.068,-14.116 0.407,-21.31 0.882,-21.921c0.611,-0.679 6.244,-0.882 28.707,-0.882c27.689,0 35.087,-0.407 42.892,-2.375c13.302,-3.393 22.599,-12.827 25.518,-25.789c1.289,-5.769 1.222,-46.488 -0.068,-52.257c-1.493,-6.651 -4.004,-11.13 -8.823,-15.949c-6.99,-6.922 -14.863,-10.112 -27.961,-11.537c-7.058,-0.747 -78.182,-0.95 -78.861,-0.204Zm77.775,15.406c10.926,2.104 17.51,7.94 19.41,17.374c0.475,2.036 1.018,9.23 1.222,15.949c0.407,13.913 -0.475,24.975 -2.579,30.54c-1.561,4.14 -5.429,8.483 -9.366,10.519c-6.515,3.258 -8.958,3.529 -38.141,3.868c-20.088,0.271 -27.961,0.136 -28.979,-0.407l-1.493,-0.814l0,-38.548c0,-21.174 0.204,-38.752 0.475,-38.955c0.204,-0.271 12.555,-0.475 27.418,-0.475c20.631,0 28.165,0.204 32.033,0.95Z" style="fill-rule:nonzero;"/><path d="M784.318,984.837c0,1.154 0.407,1.357 3.393,1.357l3.393,0l0,10.18c0,9.705 0.068,10.18 1.357,10.18c1.289,0 1.357,-0.475 1.357,-10.18l0,-10.18l3.801,0c3.19,0 3.733,-0.204 3.529,-1.222c-0.204,-1.018 -1.222,-1.154 -8.551,-1.357c-7.94,-0.136 -8.28,-0.136 -8.28,1.222Z" style="fill-rule:nonzero;"/><path d="M803.999,995.017c0,11.062 0.068,11.537 1.357,11.537c1.289,0 1.357,-0.475 1.425,-9.705l0,-9.637l3.258,9.162c2.85,8.212 3.393,9.162 4.819,9.162c1.357,0 1.832,-0.95 4.683,-9.162l3.122,-9.162l0.204,9.637c0.136,9.162 0.271,9.705 1.493,9.705c1.289,0 1.357,-0.475 1.357,-11.537l0,-11.537l-4.683,0l-2.918,8.823c-1.561,4.819 -3.054,8.823 -3.258,8.823c-0.204,0 -1.697,-4.004 -3.258,-8.823l-2.918,-8.823l-4.683,0l0,11.537Z" style="fill-rule:nonzero;"/></g></g></g></svg>