<?xml version="1.0" encoding="UTF-8" standalone="no"?><!DOCTYPE svg PUBLIC "-//W3C//DTD SVG 1.1//EN" "http://www.w3.org/Graphics/SVG/1.1/DTD/svg11.dtd"><svg width="100%" height="100%" viewBox="0 0 62 32" version="1.1" xmlns="http://www.w3.org/2000/svg" xmlns:xlink="http://www.w3.org/1999/xlink" xml:space="preserve" xmlns:serif="http://www.serif.com/" style="fill-rule:evenodd;clip-rule:evenodd;stroke-linejoin:round;stroke-miterlimit:2;"><path d="M51.155,17.549l-0.389,0l0,6.718l-4.824,0l0,-16.727l4.824,-7.541l0,15.607c0.96,-1.177 4.195,-5.644 4.195,-5.644l5.956,0l-5.647,5.976l5.841,8.341l-6.093,0l-3.864,-6.73Zm-13.443,-1.097l1.978,-6.444l4.778,0l-5.601,14.213c-1.669,4.273 -4.058,7.164 -7.625,7.164c-1.372,0 -2.526,-0.354 -3.132,-0.697l1.92,-2.971c0.286,0.034 0.583,0.046 0.88,0.046c1.646,0 2.881,-1.599 3.681,-3.496l-5.876,-14.259l5.407,0l2.115,6.364c0.412,1.211 0.709,3.519 0.709,3.519c0,0 0.377,-2.228 0.766,-3.439Zm-14.575,-0.331c0,-1.862 -0.823,-2.742 -2.389,-2.742c-0.766,0 -1.566,0.217 -2.115,0.548l0,10.34l-4.824,0l0,-14.122l4.721,-0.388l-0.114,2.308l0.16,0c1.017,-1.371 2.744,-2.411 4.801,-2.411c2.469,0 4.607,1.531 4.607,5.153l0,9.46l-4.847,0l0,-8.146Zm-23.137,7.415l0.434,-3.29c1.509,0.743 3.212,1.097 4.641,1.097c1.04,0 1.726,-0.354 1.726,-0.983c0,-1.805 -6.504,-1.371 -6.504,-6.09c0,-3.016 2.766,-4.604 6.23,-4.604c1.726,0 3.509,0.468 4.664,0.88l-0.469,3.233c-1.212,-0.468 -2.858,-0.903 -4.23,-0.903c-0.846,0 -1.532,0.297 -1.532,0.845c0,1.782 6.642,1.428 6.642,6.033c0,3.062 -2.721,4.822 -6.447,4.822c-2.058,0 -3.727,-0.354 -5.156,-1.04Z" style="fill:#080605;fill-rule:nonzero;"/></svg>