<?xml version="1.0" encoding="UTF-8" standalone="no"?><!DOCTYPE svg PUBLIC "-//W3C//DTD SVG 1.1//EN" "http://www.w3.org/Graphics/SVG/1.1/DTD/svg11.dtd"><svg width="100%" height="100%" viewBox="0 0 2500 606" version="1.1" xmlns="http://www.w3.org/2000/svg" xmlns:xlink="http://www.w3.org/1999/xlink" xml:space="preserve" xmlns:serif="http://www.serif.com/" style="fill-rule:evenodd;clip-rule:evenodd;stroke-linejoin:round;stroke-miterlimit:2;"><g><path d="M13.364,463.699c13.837,8.445 42.557,18.338 64.77,18.338c22.784,0 32.162,-7.943 32.162,-20.275c0,-12.332 -7.386,-18.324 -35.604,-27.717c-49.985,-16.833 -69.215,-44.048 -68.769,-72.754c0,-45.052 38.614,-79.151 98.436,-79.151c28.218,0 53.427,6.382 68.281,13.823l-13.336,51.936c-10.883,-5.936 -31.66,-13.823 -52.437,-13.823c-18.324,0 -28.72,7.386 -28.72,19.774c0,11.385 9.448,17.335 39.101,27.717c45.985,15.83 65.327,39.018 65.773,74.705c0,44.996 -35.604,78.161 -104.874,78.161c-31.66,0 -59.823,-6.967 -78.147,-16.833l13.364,-53.9Zm434.38,-57.816c0,88.543 -62.819,129.149 -127.644,129.149c-70.762,-0.056 -125.108,-46.557 -125.108,-124.76c0,-78.203 51.434,-128.09 129.149,-128.09c74.162,0 123.603,50.932 123.603,123.701Zm-175.134,2.439c0,41.554 17.321,72.713 49.483,72.713c29.263,0 47.992,-29.263 47.992,-72.713c0,-36.105 -13.823,-72.754 -47.992,-72.754c-36.105,0 -49.483,37.095 -49.483,72.754Zm201.959,-43.547c0,-30.155 -1.003,-55.879 -1.993,-77.144l65.313,0l3.442,33.096l1.505,0c9.894,-15.328 34.6,-38.544 74.65,-38.544c49.497,0 86.606,32.608 86.606,103.871l0,143.53l-75.249,0l0,-134.138c0,-31.172 -10.883,-52.437 -38.098,-52.437c-20.777,0 -33.109,14.325 -38.042,28.218c-2.007,4.445 -3.01,11.831 -3.01,18.77l0,139.531l-75.123,0l0,-164.753Zm407.653,164.753l-4.417,-24.275l-1.393,0c-15.83,19.328 -40.606,29.723 -69.271,29.723c-48.995,0 -78.161,-35.66 -78.161,-74.218c0,-62.819 56.381,-93.044 141.983,-92.542l0,-3.442c0,-12.89 -6.967,-31.159 -44.048,-31.159c-24.721,0 -50.932,8.361 -66.762,18.269l-13.935,-48.424c16.833,-9.448 49.999,-21.279 93.991,-21.279c80.642,0 106.365,47.49 106.365,104.373l0,84.097c0,23.216 1.003,45.484 3.498,58.875l-67.849,0Zm-8.89,-114.267c-39.547,-0.502 -70.26,8.932 -70.26,38.098c0,19.328 12.89,28.72 29.709,28.72c17.556,0.073 33.307,-11.115 39.018,-27.717c1.015,-4.221 1.516,-8.549 1.491,-12.89l0.042,-26.212Zm112.873,-48.034c0,-35.604 -1.003,-58.833 -1.993,-79.596l64.811,0l2.508,44.48l1.937,0c12.388,-35.102 42.056,-49.929 65.327,-49.929c5.295,-0.204 10.597,0.114 15.83,0.948l0,70.762c-6.679,-1.315 -13.468,-1.987 -20.275,-2.007c-27.717,0 -46.487,14.896 -51.559,38.112c-0.977,5.557 -1.444,11.192 -1.393,16.833l0,122.697l-75.249,0l0.056,-162.3Zm644.728,96.973c0,24.721 0.502,46.501 1.993,65.327l-38.6,0l-2.494,-39.101l-0.948,0c-11.385,19.272 -36.663,44.592 -79.151,44.592c-37.624,0 -82.662,-20.777 -82.662,-104.874l0,-140.074l43.547,0l0,132.535c0,45.484 13.837,76.21 53.441,76.21c29.166,0 49.441,-20.331 57.384,-39.603c2.618,-7.142 3.953,-14.69 3.944,-22.296l0,-146.847l43.547,0l0,174.131Zm50.542,65.327c1.003,-16.332 1.951,-40.606 1.951,-61.885l0,-289.387l43.017,0l0,150.414l1.003,0c15.328,-26.713 43.045,-44.048 81.645,-44.048c59.321,0 101.377,49.497 100.875,122.21c0,85.588 -53.928,128.202 -107.299,128.202c-34.656,0 -62.331,-13.391 -80.154,-45.052l-1.505,0l-1.937,39.603l-37.596,-0.056Zm44.968,-95.984c0.144,5.329 0.812,10.631 1.993,15.83c8.361,30.169 33.611,50.932 65.271,50.932c45.553,0 72.713,-37.095 72.713,-91.971c0,-47.992 -24.721,-89.03 -71.208,-89.03c-29.668,0 -57.384,20.275 -66.275,53.371c-0.989,5.003 -2.494,10.897 -2.494,17.837l-0,43.031Zm242.984,-15.83c0.948,58.875 38.558,83.094 82.105,83.094c31.159,0 49.985,-5.435 66.261,-12.332l7.441,31.159c-15.328,6.898 -41.54,14.841 -79.652,14.841c-73.702,0 -117.75,-48.494 -117.75,-120.705c0,-72.211 42.543,-129.121 112.302,-129.121c78.161,0 98.938,68.769 98.938,112.873c-0.045,6.781 -0.511,13.552 -1.393,20.275l-168.251,-0.084Zm127.588,-31.159c0.502,-27.717 -11.329,-70.776 -60.324,-70.776c-44.048,0 -63.32,40.606 -66.888,70.776l127.212,0Z" style="fill:#080605;fill-rule:nonzero;"/><path d="M1377.386,333.185c-24.048,-35.374 -64.147,-56.601 -106.921,-56.601c-70.926,0 -129.288,58.363 -129.288,129.288c0,70.926 58.363,129.288 129.288,129.288c17.734,0 35.28,-3.649 51.543,-10.719l50.04,81.241l39.701,-27.006l-50.013,-81.255c43.851,-43.707 50.459,-113.079 15.649,-164.279m-56.046,147.585c-15.017,10.208 -32.762,15.668 -50.92,15.668c-49.689,0 -90.577,-40.888 -90.577,-90.577c0,-49.689 40.888,-90.577 90.577,-90.577c29.973,0 58.07,14.877 74.916,39.668c27.886,41.103 17.061,97.864 -23.996,125.819" style="fill:#080605;"/></g><g><path d="M2436.624,530.531l-30.657,0c0,-246.899 -203.743,-447.786 -454.154,-447.786l0,-30.657c267.314,0 484.811,214.626 484.811,478.443Z" style="fill:#080605;fill-rule:nonzero;"/><path d="M2457.833,365.89c-36.83,-154.915 -162.328,-284.273 -319.696,-329.394l6.967,-24.567c166.105,47.685 298.598,184.29 337.518,348.053l-24.79,5.908Zm23.578,-145.342c-37.931,-82.704 -102.547,-154.831 -181.949,-203.074l10.618,-17.474c82.857,50.347 150.302,125.638 189.919,212.02l-18.589,8.528Z" style="fill:#080605;fill-rule:nonzero;"/></g></svg>