<?xml version="1.0" encoding="UTF-8" standalone="no"?>
<!DOCTYPE svg PUBLIC "-//W3C//DTD SVG 1.1//EN" "http://www.w3.org/Graphics/SVG/1.1/DTD/svg11.dtd">
<svg width="100%" height="100%" viewBox="0 0 360 360" version="1.1" xmlns="http://www.w3.org/2000/svg" xmlns:xlink="http://www.w3.org/1999/xlink" xml:space="preserve" xmlns:serif="http://www.serif.com/" style="fill-rule:evenodd;clip-rule:evenodd;stroke-linejoin:round;stroke-miterlimit:2;">
    <g id="g2">
        <path id="path1" d="M267.099,217.525C262.519,213.887 255.833,214.66 252.197,219.243C247.695,224.925 243.605,228.344 238.943,230.335C230.344,233.996 223.056,232.449 216.009,225.462C209.104,218.617 202.377,211.158 195.85,203.929C192.657,200.392 189.458,196.848 186.218,193.346C180.683,187.363 175.118,181.404 169.558,175.439L169.068,174.913C156.976,161.962 144.477,148.567 132.42,135.113C122.86,124.441 108.088,119.155 93.877,121.293C79.353,123.467 67.609,132.769 60.805,147.48C54.248,161.649 56.467,177.748 66.588,189.495C84.393,210.16 99.413,227.246 117.005,243.316C124.199,249.883 132.904,253.38 142.175,253.427C148.189,253.456 157.254,252.777 166.501,246.546C170.55,243.818 174.321,241.012 175.979,236.731C177.667,232.349 176.091,227.311 172.137,224.47C168.301,221.706 163.267,221.901 159.608,224.943C159.148,225.326 158.646,225.769 158.098,226.248C152.35,231.286 145.197,237.558 130.614,227.08C117.253,217.477 106.908,204.892 94.922,190.316C91.015,185.568 86.972,180.654 82.652,175.634C78.037,170.277 77.04,162.907 80.05,156.392C82.676,150.723 87.745,143.671 97.023,142.283C104.051,141.226 111.93,144.037 116.633,149.282C128.791,162.854 141.384,176.354 153.565,189.401C159.272,195.513 164.979,201.632 170.656,207.768C173.837,211.206 176.977,214.684 180.163,218.216C186.856,225.628 193.772,233.288 201.078,240.534C214.268,253.616 230.663,256.929 247.264,249.86C255.237,246.452 262.089,240.918 268.816,232.431C272.446,227.854 271.679,221.169 267.099,217.525L267.099,217.525Z" style="fill:rgb(8,6,5);fill-rule:nonzero;"/>
        <path id="path2" d="M283.693,158.568C290.551,155.314 295.945,149.189 296.458,141.76C297.763,128.861 287.152,116.518 271.542,114.61C261.958,113.394 253.064,116.235 246.762,121.461C243.392,124.267 242.483,129.458 245.404,133.12C248.597,136.929 252.279,137.596 258.305,134.283C260.465,133.055 263.711,132.033 267.281,132.281C274.015,132.748 275.945,138.819 275.756,141.577C275.726,141.984 275.768,151.386 266.284,150.731L262.708,150.483C258.724,150.211 254.74,153.938 254.446,158.202C254.127,162.738 257.443,166.701 261.568,166.99L265.965,167.291C278.064,168.13 276.8,178.406 276.547,180.048C276.311,184.773 268.733,192.787 255.219,183.674C250.633,180.585 217.927,139.474 217.927,139.474C202.429,119.424 176.097,115.892 155.317,131.082C153.034,132.753 151.528,135.216 151.092,138.022C150.661,140.821 151.34,143.626 153.01,145.912C154.68,148.197 157.141,149.703 159.938,150.14C162.753,150.578 165.545,149.892 167.829,148.221C182.004,137.856 194.639,144.034 201.137,152.444C201.137,152.444 236.251,197.642 245.292,202.431C251.158,205.538 257.284,207.333 263.51,207.765C282.619,209.087 294.257,198.551 297.397,184.117C299.456,174.656 293.342,162.832 283.693,158.568Z" style="fill:rgb(8,6,5);fill-rule:nonzero;"/>
    </g>
    <g id="g36">
        <path id="path3" d="M334.164,146.545L348.148,148.062C348.329,148.079 348.531,148.095 348.75,148.117C348.972,148.14 349.202,148.154 349.44,148.159C349.221,148.251 349.011,148.345 348.811,148.442C348.611,148.534 348.431,148.628 348.273,148.722L335.788,155.166L336.465,158.734L357.476,160.878L356.891,157.79C356.833,157.469 356.689,157.208 356.473,157.008C356.251,156.806 356.021,156.692 355.777,156.664L343.719,155.901C343.414,155.876 343.084,155.86 342.732,155.849C342.377,155.838 342.003,155.832 341.609,155.835C341.975,155.682 342.322,155.53 342.652,155.38C342.979,155.233 343.278,155.08 343.55,154.925L354.382,149.274C354.635,149.136 354.82,148.941 354.931,148.697C355.048,148.45 355.073,148.154 355.006,147.807L354.787,146.653C354.729,146.331 354.588,146.076 354.371,145.876C354.152,145.679 353.922,145.563 353.676,145.527L341.543,144.217C341.224,144.162 340.878,144.131 340.509,144.117C340.14,144.104 339.752,144.095 339.348,144.09C340.11,143.79 340.772,143.496 341.338,143.213L352.276,138.106C352.52,137.979 352.7,137.784 352.816,137.529C352.936,137.274 352.96,136.972 352.894,136.622L352.273,133.321L333.493,142.991L334.164,146.545L334.164,146.545Z" style="fill:rgb(8,6,5);fill-rule:nonzero;"/>
        <path id="path4" d="M354.992,168.332C354.05,167.491 352.941,166.85 351.666,166.415C350.385,165.974 349.01,165.774 347.539,165.813C346.053,165.852 344.686,166.123 343.433,166.631C342.18,167.139 341.105,167.838 340.204,168.726C339.303,169.613 338.607,170.67 338.122,171.893C337.637,173.12 337.413,174.465 337.452,175.941C337.49,177.416 337.784,178.753 338.336,179.949C338.885,181.142 339.636,182.16 340.584,182.992C341.532,183.827 342.643,184.462 343.918,184.898C345.196,185.328 346.577,185.528 348.06,185.489C349.534,185.447 350.895,185.178 352.143,184.676C353.39,184.177 354.466,183.483 355.367,182.601C356.267,181.713 356.963,180.662 357.457,179.436C357.944,178.215 358.172,176.864 358.133,175.391C358.091,173.918 357.798,172.581 357.24,171.386C356.686,170.19 355.935,169.169 354.992,168.332L354.992,168.332ZM354.319,177.896C354.017,178.612 353.573,179.222 352.988,179.733C352.401,180.243 351.683,180.64 350.834,180.926C349.989,181.214 349.03,181.372 347.952,181.4C346.865,181.43 345.889,181.325 345.022,181.084C344.16,180.84 343.42,180.482 342.812,180.005C342.205,179.527 341.734,178.939 341.402,178.24C341.066,177.541 340.889,176.745 340.864,175.849C340.842,174.953 340.977,174.146 341.274,173.427C341.571,172.709 342.009,172.093 342.591,171.583C343.17,171.075 343.888,170.678 344.739,170.39C345.59,170.104 346.56,169.946 347.647,169.918C348.725,169.888 349.692,169.996 350.552,170.235C351.414,170.476 352.151,170.837 352.764,171.316C353.376,171.791 353.85,172.382 354.188,173.083C354.527,173.788 354.71,174.587 354.735,175.483C354.757,176.376 354.618,177.181 354.319,177.896L354.319,177.896Z" style="fill:rgb(8,6,5);fill-rule:nonzero;"/>
        <path id="path5" d="M337.188,193.289L344.936,194.096L344.797,195.445C344.761,195.791 344.681,196.049 344.562,196.23C344.44,196.404 344.251,196.554 343.993,196.682L337.335,199.7C336.761,199.988 336.445,200.452 336.379,201.09L336.005,204.685L343.813,200.943C344.115,200.779 344.376,200.599 344.595,200.396C344.819,200.194 345.011,199.975 345.18,199.733C345.343,200.416 345.587,201.031 345.917,201.575C346.241,202.122 346.632,202.593 347.087,202.993C347.541,203.392 348.054,203.714 348.625,203.961C349.199,204.202 349.814,204.357 350.469,204.427C351.331,204.516 352.132,204.455 352.88,204.249C353.629,204.038 354.288,203.656 354.87,203.098C355.447,202.538 355.935,201.792 356.32,200.862C356.705,199.93 356.971,198.793 357.113,197.445L357.739,191.375L337.601,189.286L337.188,193.289L337.188,193.289ZM347.771,194.391L354.261,195.065L354.047,197.128C353.917,198.385 353.556,199.284 352.963,199.839C352.37,200.391 351.583,200.613 350.602,200.513C350.108,200.463 349.656,200.341 349.252,200.149C348.847,199.961 348.506,199.697 348.234,199.362C347.968,199.029 347.769,198.613 347.647,198.127C347.519,197.639 347.494,197.073 347.561,196.421L347.771,194.391L347.771,194.391Z" style="fill:rgb(8,6,5);fill-rule:nonzero;"/>
        <path id="polygon5" d="M333.05,218.527L336.273,219.212L337.729,212.333L354.31,215.847L355.145,211.922L335.339,207.722L333.05,218.527Z" style="fill:rgb(8,6,5);fill-rule:nonzero;"/>
        <path id="path6" d="M329.929,228.916C329.463,230.317 329.274,231.668 329.369,232.974C329.46,234.281 329.795,235.479 330.372,236.58C330.951,237.676 331.758,238.644 332.795,239.479C333.826,240.317 335.048,240.966 336.456,241.438C337.856,241.901 339.217,242.106 340.539,242.053C341.867,242.001 343.084,241.707 344.204,241.174C345.324,240.639 346.311,239.876 347.167,238.885C348.021,237.892 348.678,236.697 349.141,235.299L351.466,228.289L332.251,221.906L329.929,228.916L329.929,228.916ZM332.953,229.92L334.006,226.733L347.187,231.11L346.133,234.297C345.85,235.146 345.446,235.862 344.919,236.433C344.392,237.007 343.763,237.435 343.04,237.715C342.314,237.992 341.507,238.125 340.614,238.106C339.719,238.089 338.76,237.909 337.74,237.568C336.706,237.229 335.827,236.794 335.093,236.275C334.361,235.751 333.787,235.163 333.374,234.505C332.961,233.848 332.717,233.132 332.639,232.355C332.565,231.582 332.667,230.769 332.953,229.92Z" style="fill:rgb(8,6,5);fill-rule:nonzero;"/>
        <path id="path7" d="M318.198,256.095L327.739,266.44C327.863,266.573 327.999,266.717 328.152,266.881C328.307,267.042 328.47,267.202 328.648,267.363C328.418,267.291 328.199,267.222 327.988,267.164C327.775,267.103 327.578,267.055 327.401,267.019L313.757,263.663L311.922,266.795L326.344,282.232L327.933,279.525C328.099,279.242 328.166,278.953 328.132,278.656C328.099,278.359 327.999,278.124 327.833,277.946L319.251,269.435C319.035,269.216 318.799,268.986 318.541,268.742C318.281,268.501 318.001,268.257 317.704,267.999C318.079,268.121 318.439,268.237 318.785,268.34C319.132,268.442 319.459,268.523 319.764,268.587L331.639,271.458C331.922,271.516 332.185,271.491 332.432,271.383C332.678,271.275 332.892,271.067 333.072,270.759L333.665,269.746C333.831,269.466 333.895,269.18 333.859,268.889C333.826,268.595 333.729,268.354 333.565,268.168L325.288,259.199C325.078,258.947 324.842,258.697 324.573,258.445C324.302,258.19 324.016,257.929 323.717,257.657C324.484,257.932 325.177,258.151 325.79,258.309L337.388,261.654C337.657,261.718 337.917,261.69 338.172,261.577C338.43,261.46 338.649,261.249 338.829,260.944L340.526,258.048L320.022,252.977L318.198,256.095L318.198,256.095Z" style="fill:rgb(8,6,5);fill-rule:nonzero;"/>
        <g id="rect7" transform="matrix(0.607664,-0.794194,0.794194,0.607664,-101.14885,359.44203)">
            <rect x="311.217" y="271.972" width="4.025" height="20.252" style="fill:rgb(8,6,5);"/>
        </g>
        <path id="path8" d="M295.834,287.092C294.83,288.174 294.101,289.325 293.638,290.551C293.178,291.777 292.987,293.012 293.056,294.249C293.128,295.489 293.458,296.704 294.051,297.894C294.645,299.084 295.484,300.185 296.571,301.198C297.649,302.205 298.802,302.954 300.03,303.459C301.256,303.961 302.489,304.202 303.728,304.183C304.97,304.163 306.184,303.88 307.371,303.331C308.56,302.784 309.655,301.972 310.661,300.893L315.686,295.486L300.862,281.688L295.834,287.092L295.834,287.092ZM308.335,298.732C307.728,299.386 307.063,299.866 306.345,300.169C305.624,300.474 304.879,300.599 304.105,300.554C303.329,300.507 302.539,300.285 301.735,299.9C300.929,299.508 300.13,298.951 299.343,298.213C298.547,297.472 297.924,296.715 297.475,295.935C297.026,295.156 296.751,294.379 296.646,293.614C296.543,292.84 296.621,292.088 296.873,291.353C297.125,290.618 297.558,289.919 298.168,289.267L300.452,286.809L310.619,296.274L308.335,298.732Z" style="fill:rgb(8,6,5);fill-rule:nonzero;"/>
        <path id="polygon8" d="M276.974,304.649L279.022,307.09L285.384,301.689L288.915,305.855L283.973,310.05L285.957,312.385L290.897,308.191L294.359,312.277L288.011,317.664L290.074,320.097L299.49,312.102L286.39,296.654L276.974,304.649Z" style="fill:rgb(8,6,5);fill-rule:nonzero;"/>
        <path id="path9" d="M260.176,316L263.108,329.767C263.144,329.945 263.191,330.139 263.241,330.355C263.288,330.572 263.349,330.796 263.419,331.027C263.261,330.846 263.106,330.677 262.953,330.513C262.803,330.355 262.656,330.214 262.521,330.094L252.503,320.238L249.326,321.994L253.853,342.636L256.605,341.116C256.888,340.957 257.093,340.747 257.215,340.475C257.337,340.2 257.373,339.948 257.323,339.706L254.282,328.006C254.21,327.706 254.124,327.39 254.022,327.049C253.922,326.71 253.811,326.355 253.687,325.981C253.942,326.28 254.194,326.563 254.44,326.827C254.684,327.09 254.926,327.332 255.156,327.54L263.904,336.072C264.117,336.269 264.356,336.383 264.622,336.414C264.893,336.447 265.182,336.378 265.492,336.206L266.521,335.64C266.803,335.482 267.006,335.268 267.122,334.999C267.244,334.73 267.283,334.472 267.241,334.231L264.691,322.288C264.641,321.967 264.566,321.628 264.461,321.276C264.358,320.918 264.245,320.546 264.128,320.161C264.65,320.79 265.132,321.329 265.581,321.781L273.847,330.58C274.046,330.771 274.285,330.882 274.562,330.916C274.839,330.946 275.138,330.877 275.446,330.705L278.384,329.082L263.341,314.252L260.176,316L260.176,316Z" style="fill:rgb(8,6,5);fill-rule:nonzero;"/>
        <path id="polygon9" d="M229.632,329.934L230.74,332.921L238.543,329.981L240.467,335.09L234.408,337.376L235.486,340.245L241.551,337.959L243.436,342.969L235.65,345.909L236.769,348.894L248.326,344.536L241.188,325.576L229.632,329.934Z" style="fill:rgb(8,6,5);fill-rule:nonzero;"/>
        <path id="path10" d="M218.477,333.04C217.366,333.326 216.412,333.726 215.628,334.236C214.841,334.749 214.22,335.34 213.765,336.006C213.313,336.674 213.025,337.398 212.903,338.189C212.776,338.977 212.823,339.79 213.036,340.625C213.618,342.902 215.256,344.023 217.942,343.984C217.416,344.339 216.981,344.722 216.637,345.132C216.296,345.537 216.041,345.959 215.866,346.389C215.694,346.824 215.597,347.268 215.575,347.723C215.559,348.181 215.608,348.633 215.722,349.088C215.927,349.887 216.243,350.578 216.67,351.155C217.094,351.732 217.649,352.175 218.33,352.483C219.012,352.791 219.833,352.955 220.792,352.972C221.751,352.988 222.86,352.833 224.121,352.511L230.782,350.802L225.759,331.176L218.477,333.04ZM218.078,341.476C217.768,341.315 217.518,341.085 217.319,340.788C217.125,340.491 216.975,340.142 216.87,339.74C216.773,339.362 216.728,338.988 216.739,338.613C216.75,338.236 216.839,337.887 217.011,337.559C217.186,337.232 217.46,336.935 217.832,336.674C218.203,336.411 218.702,336.197 219.32,336.039L222.644,335.185L224.057,340.699L220.75,341.548C220.157,341.698 219.642,341.765 219.201,341.748C218.763,341.729 218.389,341.637 218.078,341.476L218.078,341.476ZM223.359,349.524C222.256,349.806 221.393,349.809 220.778,349.532C220.163,349.254 219.722,348.614 219.467,347.609C219.218,346.641 219.337,345.876 219.822,345.304C220.304,344.736 221.091,344.308 222.186,344.028L224.739,343.374L226.133,348.813L223.359,349.524Z" style="fill:rgb(8,6,5);fill-rule:nonzero;"/>
        <path id="path11" d="M200.385,342.697C199.869,341.471 199.19,340.43 198.35,339.576C197.508,338.724 196.521,338.086 195.384,337.667C194.248,337.246 192.995,337.09 191.628,337.204C190.118,337.332 188.837,337.709 187.784,338.339C186.73,338.966 185.877,339.826 185.234,340.91L186.974,342.494C187.138,342.644 187.326,342.708 187.54,342.691C187.653,342.683 187.759,342.647 187.861,342.58C187.961,342.516 188.061,342.442 188.155,342.35C188.385,342.056 188.621,341.806 188.859,341.604C189.098,341.398 189.353,341.227 189.635,341.085C189.913,340.946 190.218,340.838 190.547,340.763C190.877,340.691 191.249,340.636 191.664,340.602C192.363,340.541 193.028,340.644 193.663,340.902C194.298,341.16 194.866,341.568 195.362,342.123C195.864,342.677 196.28,343.374 196.618,344.214C196.953,345.052 197.167,346.028 197.258,347.132C197.35,348.225 197.314,349.213 197.145,350.089C196.981,350.966 196.704,351.718 196.316,352.347C195.928,352.977 195.445,353.471 194.863,353.832C194.284,354.189 193.621,354.4 192.884,354.464C192.202,354.52 191.642,354.486 191.19,354.359C190.741,354.234 190.367,354.087 190.06,353.918C189.757,353.751 189.497,353.593 189.286,353.446C189.075,353.302 188.865,353.235 188.651,353.255C188.438,353.271 188.277,353.332 188.166,353.432C188.061,353.535 187.964,353.643 187.884,353.762L186.703,355.746C187.465,356.478 188.391,357.041 189.475,357.435C190.558,357.829 191.775,357.97 193.134,357.857C194.47,357.743 195.675,357.388 196.748,356.789C197.818,356.189 198.716,355.399 199.443,354.42C200.166,353.443 200.695,352.303 201.031,351.002C201.366,349.704 201.472,348.3 201.344,346.791C201.222,345.29 200.901,343.928 200.385,342.697L200.385,342.697Z" style="fill:rgb(8,6,5);fill-rule:nonzero;"/>
        <path id="path12" d="M180.275,340.747C179.451,339.784 178.445,339.021 177.259,338.453C176.075,337.881 174.745,337.565 173.273,337.504C171.798,337.44 170.448,337.643 169.217,338.111C167.989,338.577 166.922,339.257 166.024,340.142C165.129,341.032 164.419,342.1 163.898,343.346C163.38,344.589 163.089,345.956 163.025,347.438C162.964,348.911 163.139,350.289 163.554,351.568C163.967,352.847 164.585,353.968 165.403,354.927C166.224,355.89 167.224,356.658 168.411,357.235C169.597,357.807 170.925,358.126 172.4,358.19C173.871,358.251 175.221,358.045 176.452,357.574C177.683,357.099 178.75,356.422 179.654,355.54C180.555,354.655 181.267,353.593 181.794,352.347C182.32,351.099 182.614,349.74 182.675,348.27C182.736,346.786 182.559,345.401 182.14,344.114C181.722,342.83 181.101,341.709 180.275,340.747L180.275,340.747ZM178.06,350.974C177.76,351.818 177.35,352.528 176.835,353.105C176.316,353.685 175.693,354.12 174.969,354.409C174.246,354.7 173.436,354.827 172.544,354.789C171.648,354.75 170.856,354.556 170.165,354.209C169.47,353.859 168.89,353.374 168.425,352.752C167.956,352.131 167.61,351.388 167.38,350.522C167.152,349.659 167.061,348.689 167.105,347.612C167.152,346.522 167.327,345.554 167.626,344.708C167.926,343.859 168.336,343.152 168.854,342.577C169.373,342.003 169.988,341.573 170.709,341.288C171.429,341.005 172.233,340.88 173.126,340.916C174.021,340.955 174.817,341.146 175.512,341.493C176.211,341.834 176.796,342.317 177.262,342.933C177.73,343.548 178.076,344.289 178.304,345.157C178.531,346.028 178.623,347.008 178.578,348.095C178.531,349.174 178.359,350.134 178.06,350.974L178.06,350.974Z" style="fill:rgb(8,6,5);fill-rule:nonzero;"/>
        <path id="path13" d="M154.26,347.976C154.16,348.505 154.085,349.088 154.033,349.72L146.609,335.063C146.454,334.785 146.285,334.577 146.102,334.433C145.914,334.292 145.667,334.192 145.357,334.136L143.333,333.762L139.677,353.693L143.145,354.328L145.284,342.652C145.39,342.061 145.476,341.432 145.537,340.76L152.971,355.496C153.06,355.646 153.137,355.771 153.207,355.865C153.276,355.962 153.356,356.04 153.442,356.101C153.528,356.164 153.634,356.214 153.75,356.25C153.866,356.287 154.008,356.323 154.177,356.353L156.247,356.733L159.901,336.802L156.425,336.164L154.26,347.976L154.26,347.976Z" style="fill:rgb(8,6,5);fill-rule:nonzero;"/>
        <path id="path14" d="M136.988,332.458C136.525,332.064 136.021,331.723 135.48,331.42C134.942,331.121 134.38,330.88 133.798,330.702C132.766,330.383 131.802,330.264 130.898,330.344C129.995,330.425 129.18,330.663 128.448,331.06C127.722,331.456 127.095,331.997 126.568,332.674C126.047,333.354 125.648,334.131 125.376,335.004C125.127,335.812 125.033,336.53 125.097,337.171C125.16,337.809 125.329,338.383 125.601,338.891C125.875,339.401 126.222,339.864 126.64,340.275C127.062,340.688 127.505,341.071 127.971,341.423C128.434,341.776 128.891,342.111 129.34,342.433C129.789,342.752 130.18,343.077 130.507,343.407C130.837,343.737 131.076,344.084 131.225,344.444C131.372,344.808 131.38,345.204 131.245,345.64C131.031,346.331 130.638,346.822 130.061,347.113C129.487,347.404 128.764,347.413 127.891,347.141C127.394,346.988 126.979,346.783 126.643,346.53C126.308,346.278 126.02,346.026 125.781,345.776C125.546,345.529 125.343,345.301 125.171,345.102C125.002,344.896 124.822,344.766 124.639,344.711C124.442,344.65 124.268,344.639 124.112,344.683C123.954,344.725 123.799,344.827 123.641,344.991L122.106,346.494C122.574,347.354 123.225,348.112 124.06,348.766C124.894,349.418 125.864,349.915 126.973,350.259C127.954,350.564 128.875,350.675 129.734,350.594C130.593,350.517 131.367,350.295 132.054,349.934C132.739,349.571 133.326,349.096 133.803,348.503C134.285,347.912 134.635,347.263 134.856,346.553C135.134,345.659 135.245,344.874 135.195,344.2C135.145,343.523 134.987,342.921 134.723,342.394C134.463,341.865 134.119,341.398 133.698,340.996C133.274,340.594 132.83,340.222 132.364,339.887C131.902,339.551 131.439,339.232 130.987,338.924C130.532,338.619 130.144,338.3 129.82,337.973C129.498,337.645 129.265,337.285 129.124,336.902C128.98,336.516 128.988,336.075 129.141,335.581C129.41,334.708 129.859,334.12 130.482,333.825C131.109,333.529 131.854,333.515 132.728,333.784C133.332,333.975 133.825,334.225 134.205,334.538C134.585,334.857 134.906,335.171 135.167,335.493C135.43,335.814 135.66,336.106 135.852,336.358C136.043,336.616 136.254,336.783 136.486,336.855C136.664,336.907 136.838,336.916 137.019,336.874C137.193,336.832 137.348,336.752 137.481,336.633L139.181,335.165C138.942,334.666 138.635,334.186 138.255,333.726C137.875,333.271 137.454,332.846 136.988,332.458L136.988,332.458Z" style="fill:rgb(8,6,5);fill-rule:nonzero;"/>
        <path id="path15" d="M119.045,326.241C118.158,325.273 117.036,324.485 115.691,323.886C114.347,323.282 113.016,322.971 111.7,322.951C110.386,322.926 109.144,323.165 107.985,323.659C106.821,324.155 105.771,324.882 104.825,325.847C103.883,326.813 103.107,327.97 102.5,329.329C101.898,330.674 101.555,332.017 101.466,333.359C101.38,334.705 101.538,335.973 101.945,337.168C102.35,338.364 102.996,339.448 103.888,340.422C104.778,341.393 105.895,342.181 107.24,342.786C108.587,343.387 109.92,343.695 111.237,343.712C112.554,343.726 113.795,343.49 114.96,343.002C116.124,342.519 117.18,341.795 118.128,340.83C119.076,339.867 119.852,338.713 120.454,337.365C121.058,336.011 121.404,334.66 121.49,333.31C121.576,331.961 121.413,330.688 121.002,329.487C120.592,328.291 119.938,327.21 119.045,326.241L119.045,326.241ZM117.537,332.863C117.432,333.753 117.155,334.697 116.709,335.69C116.268,336.674 115.752,337.504 115.165,338.175C114.574,338.844 113.931,339.357 113.238,339.701C112.542,340.048 111.805,340.222 111.023,340.222C110.245,340.225 109.446,340.042 108.631,339.679C107.814,339.312 107.148,338.841 106.633,338.258C106.12,337.676 105.762,337.01 105.557,336.261C105.352,335.512 105.302,334.694 105.407,333.806C105.518,332.918 105.79,331.981 106.231,330.999C106.674,330.006 107.193,329.168 107.786,328.494C108.376,327.817 109.019,327.309 109.712,326.965C110.405,326.624 111.14,326.452 111.913,326.455C112.684,326.455 113.482,326.638 114.297,327.004C115.115,327.37 115.78,327.842 116.301,328.422C116.825,328.999 117.188,329.662 117.393,330.405C117.601,331.151 117.648,331.97 117.537,332.863L117.537,332.863Z" style="fill:rgb(8,6,5);fill-rule:nonzero;"/>
        <path id="path16" d="M100.171,316.152L96.105,322.804L94.949,322.097C94.652,321.917 94.453,321.734 94.342,321.548C94.237,321.362 94.181,321.126 94.178,320.84L94.325,313.525C94.311,312.885 94.031,312.396 93.485,312.061L90.403,310.177L90.417,318.84C90.431,319.182 90.483,319.498 90.572,319.786C90.658,320.069 90.772,320.338 90.916,320.594C90.228,320.447 89.571,320.405 88.939,320.466C88.305,320.527 87.711,320.674 87.154,320.91C86.6,321.151 86.087,321.476 85.621,321.886C85.156,322.3 84.751,322.788 84.405,323.351C83.953,324.086 83.664,324.841 83.529,325.603C83.393,326.369 83.454,327.132 83.709,327.897C83.964,328.658 84.424,329.415 85.1,330.169C85.771,330.921 86.686,331.651 87.839,332.355L93.036,335.54L103.603,318.258L100.171,316.152L100.171,316.152ZM91.212,330.807L89.444,329.728C88.371,329.068 87.711,328.352 87.468,327.578C87.226,326.805 87.362,325.995 87.875,325.154C88.138,324.73 88.44,324.374 88.784,324.094C89.131,323.809 89.513,323.62 89.935,323.515C90.35,323.415 90.81,323.415 91.304,323.512C91.795,323.614 92.318,323.831 92.876,324.172L94.619,325.237L91.212,330.807L91.212,330.807Z" style="fill:rgb(8,6,5);fill-rule:nonzero;"/>
        <path id="polygon16" d="M84.953,305.986L81.791,303.539L71.401,316.982L67.083,313.642L65.087,316.224L76.882,325.354L78.88,322.768L74.561,319.426L84.953,305.986Z" style="fill:rgb(8,6,5);fill-rule:nonzero;"/>
        <g id="rect16" transform="matrix(0.675067,-0.737757,0.737757,0.675067,-202.50803,147.77589)">
            <rect x="56.381" y="301.771" width="20.253" height="4.026" style="fill:rgb(8,6,5);"/>
        </g>
        <path id="path17" d="M64.061,294.304C64.563,293.325 64.851,292.315 64.918,291.27C64.987,290.227 64.826,289.175 64.436,288.11C64.042,287.048 63.41,286.03 62.534,285.05C61.661,284.077 60.718,283.333 59.709,282.834C58.703,282.332 57.675,282.054 56.63,282.01C55.585,281.963 54.551,282.135 53.522,282.529C52.497,282.923 51.532,283.527 50.623,284.34L41.628,292.401L44.292,295.378L53.287,287.319C53.85,286.817 54.421,286.437 55.014,286.182C55.601,285.927 56.183,285.799 56.757,285.797C57.328,285.797 57.885,285.924 58.429,286.182C58.972,286.437 59.482,286.831 59.959,287.364C60.43,287.894 60.765,288.443 60.962,289.012C61.159,289.58 61.223,290.149 61.162,290.72C61.095,291.286 60.904,291.852 60.585,292.41C60.267,292.967 59.829,293.497 59.266,294.002L50.274,302.063L52.946,305.051L61.944,296.99C62.853,296.177 63.557,295.284 64.061,294.304Z" style="fill:rgb(8,6,5);fill-rule:nonzero;"/>
        <path id="path18" d="M51.759,272.326L41.112,279.194C40.874,279.353 40.622,279.527 40.353,279.721C40.084,279.918 39.821,280.126 39.552,280.351L45.606,268.742C45.927,268.159 45.922,267.605 45.586,267.086L45.281,266.609C44.952,266.096 44.453,265.868 43.785,265.924L30.815,266.689C31.114,266.534 31.402,266.373 31.682,266.215C31.957,266.051 32.212,265.899 32.445,265.749L43.089,258.875L41.176,255.912L24.168,266.897L25.8,269.435C25.897,269.582 25.983,269.707 26.064,269.813C26.144,269.918 26.224,270.004 26.313,270.071C26.396,270.137 26.499,270.182 26.618,270.207C26.74,270.234 26.884,270.24 27.056,270.226L39.632,269.53C39.993,269.505 40.353,269.46 40.716,269.394C41.079,269.33 41.448,269.258 41.825,269.189C41.381,269.774 40.985,270.387 40.636,271.028L34.817,282.265C34.732,282.415 34.679,282.548 34.657,282.665C34.634,282.781 34.637,282.898 34.662,283.009C34.684,283.12 34.726,283.231 34.787,283.344C34.845,283.458 34.923,283.586 35.017,283.73L36.661,286.282L53.675,275.3L51.759,272.326L51.759,272.326Z" style="fill:rgb(8,6,5);fill-rule:nonzero;"/>
        <path id="path19" d="M24.897,209.137L10.957,207.237L10.358,207.162C10.136,207.134 9.909,207.115 9.67,207.101C9.892,207.015 10.103,206.929 10.305,206.837C10.508,206.749 10.688,206.66 10.851,206.571L23.508,200.477L22.931,196.89L1.989,194.166L2.486,197.27C2.541,197.592 2.671,197.855 2.885,198.063C3.098,198.274 3.328,198.393 3.567,198.427L15.602,199.52C15.907,199.556 16.237,199.581 16.586,199.6C16.941,199.622 17.313,199.636 17.709,199.647C17.338,199.789 16.988,199.93 16.656,200.069C16.323,200.21 16.018,200.357 15.747,200.502L4.759,205.853C4.504,205.986 4.315,206.174 4.193,206.413C4.071,206.654 4.038,206.951 4.093,207.303L4.282,208.463C4.335,208.785 4.465,209.046 4.678,209.248C4.892,209.451 5.119,209.575 5.363,209.62L17.454,211.262C17.773,211.323 18.117,211.367 18.485,211.39C18.854,211.412 19.245,211.431 19.644,211.451C18.876,211.728 18.202,212.003 17.631,212.269L6.558,217.076C6.311,217.198 6.125,217.384 6,217.634C5.876,217.886 5.842,218.189 5.898,218.538L6.43,221.853L25.471,212.707L24.897,209.137L24.897,209.137Z" style="fill:rgb(8,6,5);fill-rule:nonzero;"/>
        <path id="path20" d="M4.681,186.834C5.598,187.7 6.691,188.368 7.957,188.843C9.221,189.32 10.591,189.555 12.063,189.555C13.548,189.558 14.92,189.322 16.19,188.854C17.454,188.379 18.549,187.714 19.478,186.848C20.401,185.985 21.124,184.951 21.645,183.738C22.164,182.529 22.424,181.186 22.427,179.711C22.427,178.235 22.169,176.895 21.651,175.683C21.135,174.473 20.414,173.436 19.491,172.576C18.566,171.716 17.473,171.053 16.207,170.581C14.943,170.113 13.571,169.877 12.085,169.877C10.61,169.874 9.244,170.107 7.98,170.573C6.721,171.039 5.629,171.702 4.703,172.559C3.777,173.419 3.051,174.454 2.524,175.666C2.003,176.873 1.74,178.215 1.737,179.691C1.737,181.167 1.995,182.507 2.519,183.719C3.04,184.928 3.761,185.969 4.681,186.834L4.681,186.834ZM5.621,177.292C5.939,176.584 6.4,175.985 7.004,175.491C7.603,175 8.329,174.62 9.185,174.357C10.036,174.093 11.001,173.963 12.079,173.966C13.166,173.966 14.139,174.099 15.001,174.365C15.857,174.629 16.584,175.011 17.177,175.502C17.77,175.996 18.227,176.598 18.541,177.305C18.857,178.013 19.012,178.812 19.012,179.708C19.012,180.604 18.854,181.408 18.535,182.118C18.219,182.831 17.764,183.43 17.169,183.927C16.575,184.418 15.846,184.795 14.987,185.059C14.128,185.322 13.152,185.455 12.068,185.453C10.993,185.453 10.025,185.32 9.172,185.053C8.318,184.787 7.592,184.41 6.993,183.913C6.394,183.419 5.934,182.815 5.612,182.104C5.294,181.394 5.136,180.587 5.138,179.694C5.138,178.798 5.302,177.999 5.621,177.292L5.621,177.292Z" style="fill:rgb(8,6,5);fill-rule:nonzero;"/>
        <path id="path21" d="M23.167,162.37L15.444,161.349L15.622,160.004C15.666,159.663 15.752,159.402 15.877,159.23C16.002,159.058 16.196,158.911 16.456,158.792L23.197,155.957C23.774,155.682 24.107,155.23 24.19,154.595L24.661,151.011L16.755,154.536C16.448,154.692 16.182,154.867 15.957,155.064C15.73,155.258 15.53,155.474 15.358,155.707C15.209,155.019 14.984,154.403 14.671,153.846C14.361,153.294 13.984,152.811 13.54,152.398C13.097,151.987 12.592,151.649 12.027,151.388C11.461,151.13 10.851,150.958 10.197,150.872C9.338,150.761 8.534,150.797 7.78,150.983C7.032,151.174 6.355,151.538 5.762,152.079C5.169,152.622 4.664,153.355 4.251,154.273C3.838,155.194 3.542,156.323 3.367,157.663L2.569,163.716L22.64,166.362L23.167,162.37L23.167,162.37ZM12.617,160.978L6.147,160.126L6.419,158.068C6.583,156.817 6.971,155.926 7.58,155.388C8.187,154.853 8.98,154.65 9.959,154.781C10.452,154.844 10.898,154.978 11.298,155.18C11.694,155.38 12.027,155.654 12.29,155.996C12.55,156.337 12.739,156.756 12.847,157.247C12.958,157.738 12.969,158.306 12.886,158.95L12.617,160.978L12.617,160.978Z" style="fill:rgb(8,6,5);fill-rule:nonzero;"/>
        <path id="polygon21" d="M28.021,137.171L24.816,136.4L23.17,143.235L6.688,139.257L5.748,143.158L25.429,147.912L28.021,137.171Z" style="fill:rgb(8,6,5);fill-rule:nonzero;"/>
        <path id="path22" d="M31.402,126.96C31.904,125.57 32.126,124.225 32.073,122.918C32.018,121.609 31.713,120.4 31.164,119.285C30.618,118.172 29.836,117.182 28.827,116.319C27.818,115.456 26.613,114.768 25.218,114.261C23.832,113.759 22.477,113.517 21.152,113.534C19.827,113.553 18.596,113.809 17.465,114.314C16.329,114.816 15.322,115.551 14.441,116.519C13.562,117.487 12.872,118.666 12.368,120.05L9.853,126.993L28.885,133.901L31.402,126.96ZM28.406,125.87L27.261,129.024L14.205,124.289L15.35,121.135C15.655,120.292 16.079,119.59 16.62,119.029C17.163,118.472 17.803,118.061 18.535,117.803C19.267,117.542 20.079,117.437 20.969,117.476C21.864,117.52 22.815,117.726 23.83,118.092C24.852,118.463 25.723,118.918 26.441,119.462C27.156,120 27.713,120.608 28.109,121.276C28.503,121.945 28.73,122.666 28.78,123.443C28.836,124.219 28.711,125.032 28.406,125.87L28.406,125.87Z" style="fill:rgb(8,6,5);fill-rule:nonzero;"/>
        <path id="path23" d="M43.868,100.113L34.61,89.511C34.488,89.378 34.355,89.228 34.205,89.062C34.058,88.895 33.897,88.732 33.725,88.565C33.953,88.646 34.169,88.718 34.379,88.782C34.593,88.851 34.784,88.904 34.962,88.943L48.508,92.671L50.429,89.592L36.431,73.766L34.77,76.432C34.596,76.706 34.524,76.992 34.549,77.289C34.574,77.586 34.668,77.83 34.829,78.01L43.175,86.751C43.383,86.979 43.613,87.214 43.865,87.461C44.12,87.708 44.392,87.966 44.68,88.23C44.311,88.094 43.954,87.969 43.61,87.861C43.266,87.744 42.942,87.655 42.64,87.583L30.845,84.393C30.565,84.324 30.299,84.343 30.052,84.443C29.8,84.546 29.581,84.751 29.396,85.048L28.775,86.046C28.6,86.324 28.528,86.607 28.553,86.901C28.581,87.192 28.672,87.436 28.83,87.628L36.863,96.818C37.063,97.073 37.293,97.337 37.559,97.595C37.822,97.853 38.097,98.122 38.393,98.402C37.628,98.108 36.946,97.869 36.336,97.695L24.833,94.036C24.567,93.963 24.304,93.983 24.043,94.088C23.785,94.199 23.561,94.405 23.372,94.707L21.598,97.556L41.955,103.181L43.868,100.113L43.868,100.113Z" style="fill:rgb(8,6,5);fill-rule:nonzero;"/>
        <path id="polygon23" d="M58.714,79.003L42.978,66.26L40.447,69.391L56.183,82.138L58.714,79.003Z" style="fill:rgb(8,6,5);fill-rule:nonzero;"/>
        <path id="path24" d="M67.085,69.722C68.117,68.667 68.882,67.538 69.372,66.323C69.866,65.111 70.096,63.885 70.06,62.645C70.024,61.405 69.724,60.182 69.164,58.972C68.605,57.768 67.792,56.645 66.736,55.602C65.686,54.57 64.552,53.785 63.341,53.247C62.129,52.711 60.901,52.437 59.665,52.423C58.426,52.406 57.204,52.656 56.001,53.169C54.795,53.685 53.678,54.467 52.646,55.521L47.474,60.787L61.91,74.987L67.085,69.722ZM54.908,57.743C55.535,57.105 56.211,56.645 56.937,56.359C57.664,56.079 58.415,55.974 59.188,56.04C59.962,56.11 60.743,56.348 61.539,56.759C62.334,57.169 63.116,57.752 63.881,58.509C64.66,59.269 65.259,60.046 65.688,60.836C66.113,61.63 66.37,62.412 66.451,63.183C66.534,63.954 66.437,64.706 66.162,65.438C65.888,66.165 65.436,66.848 64.813,67.486L62.462,69.882L52.555,60.137L54.908,57.743Z" style="fill:rgb(8,6,5);fill-rule:nonzero;"/>
        <path id="polygon24" d="M86.398,52.709L84.416,50.212L77.907,55.435L74.495,51.175L79.545,47.116L77.63,44.725L72.577,48.781L69.228,44.606L75.72,39.391L73.727,36.905L64.095,44.639L76.762,60.443L86.398,52.709Z" style="fill:rgb(8,6,5);fill-rule:nonzero;"/>
        <path id="path25" d="M103.478,41.84L100.925,27.998C100.895,27.82 100.853,27.626 100.809,27.407C100.764,27.188 100.712,26.963 100.651,26.73C100.801,26.916 100.95,27.091 101.1,27.254C101.25,27.418 101.388,27.562 101.521,27.687L111.267,37.815L114.488,36.145L110.527,15.384L107.739,16.827C107.45,16.98 107.237,17.188 107.107,17.454C106.976,17.726 106.935,17.978 106.979,18.219L109.701,30.001C109.765,30.303 109.843,30.619 109.934,30.963C110.023,31.307 110.125,31.662 110.242,32.042C109.992,31.734 109.748,31.443 109.51,31.174C109.272,30.902 109.039,30.658 108.817,30.444L100.304,21.673C100.096,21.471 99.858,21.349 99.592,21.312C99.323,21.271 99.032,21.332 98.719,21.496L97.674,22.036C97.386,22.186 97.18,22.394 97.053,22.661C96.928,22.924 96.881,23.179 96.917,23.423L99.137,35.432C99.179,35.757 99.245,36.092 99.34,36.456C99.434,36.811 99.537,37.185 99.645,37.576C99.14,36.93 98.672,36.378 98.239,35.915L90.215,26.894C90.018,26.694 89.782,26.578 89.505,26.536C89.228,26.5 88.931,26.558 88.615,26.722L85.635,28.267L100.268,43.502L103.478,41.84L103.478,41.84Z" style="fill:rgb(8,6,5);fill-rule:nonzero;"/>
        <path id="polygon25" d="M134.435,28.733L133.404,25.715L125.523,28.444L123.741,23.285L129.864,21.163L128.861,18.264L122.738,20.386L120.989,15.323L128.855,12.602L127.813,9.587L116.143,13.629L122.763,32.775L134.435,28.733Z" style="fill:rgb(8,6,5);fill-rule:nonzero;"/>
        <path id="path26" d="M145.642,25.928C146.765,25.676 147.724,25.302 148.522,24.811C149.323,24.322 149.961,23.748 150.432,23.096C150.9,22.439 151.211,21.72 151.355,20.935C151.499,20.15 151.477,19.337 151.283,18.494C150.762,16.203 149.16,15.041 146.474,15.004C147.011,14.666 147.455,14.297 147.807,13.898C148.159,13.501 148.428,13.085 148.611,12.658C148.797,12.23 148.905,11.787 148.938,11.332C148.968,10.877 148.932,10.419 148.827,9.961C148.647,9.16 148.347,8.463 147.94,7.875C147.53,7.284 146.986,6.827 146.313,6.499C145.639,6.175 144.824,5.989 143.865,5.945C142.906,5.903 141.795,6.028 140.528,6.316L133.82,7.845L138.316,27.598L145.642,25.928ZM146.266,17.509C146.573,17.681 146.817,17.917 147.009,18.217C147.197,18.519 147.336,18.871 147.43,19.279C147.516,19.656 147.549,20.031 147.53,20.405C147.51,20.783 147.408,21.129 147.23,21.451C147.047,21.776 146.765,22.067 146.388,22.319C146.005,22.572 145.501,22.772 144.88,22.91L141.534,23.673L140.27,18.122L143.602,17.365C144.198,17.232 144.713,17.179 145.151,17.207C145.592,17.237 145.964,17.337 146.266,17.509ZM141.207,9.321C142.319,9.071 143.178,9.088 143.788,9.384C144.395,9.676 144.813,10.33 145.046,11.343C145.268,12.314 145.129,13.079 144.63,13.637C144.129,14.189 143.33,14.597 142.23,14.846L139.657,15.432L138.416,9.959L141.207,9.321L141.207,9.321Z" style="fill:rgb(8,6,5);fill-rule:nonzero;"/>
        <path id="path27" d="M165.996,19.942C166.811,20.819 167.784,21.485 168.91,21.934C170.035,22.389 171.28,22.575 172.652,22.5C174.162,22.417 175.454,22.075 176.527,21.473C177.597,20.877 178.47,20.045 179.144,18.974L177.45,17.343C177.289,17.19 177.101,17.121 176.89,17.129C176.774,17.138 176.668,17.171 176.566,17.232C176.463,17.296 176.363,17.371 176.264,17.454C176.028,17.742 175.784,17.987 175.543,18.183C175.299,18.378 175.033,18.547 174.75,18.677C174.467,18.81 174.162,18.907 173.83,18.974C173.497,19.035 173.123,19.082 172.707,19.104C172.006,19.143 171.341,19.027 170.717,18.749C170.093,18.472 169.536,18.05 169.051,17.482C168.569,16.91 168.17,16.203 167.859,15.354C167.546,14.508 167.357,13.529 167.299,12.422C167.238,11.326 167.302,10.341 167.493,9.47C167.682,8.597 167.981,7.85 168.386,7.234C168.788,6.616 169.287,6.136 169.877,5.792C170.47,5.445 171.136,5.257 171.873,5.215C172.555,5.176 173.117,5.226 173.564,5.365C174.007,5.504 174.379,5.662 174.684,5.839C174.983,6.014 175.238,6.18 175.443,6.33C175.648,6.48 175.859,6.552 176.07,6.538C176.283,6.53 176.447,6.474 176.557,6.377C176.674,6.277 176.768,6.172 176.854,6.056L178.09,4.108C177.347,3.354 176.435,2.763 175.366,2.338C174.293,1.917 173.076,1.742 171.718,1.817C170.379,1.892 169.162,2.211 168.075,2.782C166.989,3.351 166.068,4.117 165.32,5.074C164.569,6.033 164.006,7.157 163.635,8.447C163.263,9.737 163.119,11.135 163.202,12.649C163.285,14.15 163.568,15.523 164.05,16.766C164.53,18.009 165.179,19.066 165.996,19.942L165.996,19.942Z" style="fill:rgb(8,6,5);fill-rule:nonzero;"/>
        <path id="path28" d="M199.348,5.512C198.556,4.53 197.574,3.736 196.404,3.126C195.235,2.519 193.915,2.166 192.443,2.061C190.977,1.958 189.619,2.125 188.377,2.566C187.13,3.004 186.046,3.65 185.12,4.508C184.194,5.368 183.454,6.411 182.891,7.639C182.334,8.871 182.002,10.222 181.896,11.692C181.791,13.171 181.932,14.563 182.315,15.859C182.7,17.154 183.288,18.297 184.086,19.279C184.884,20.264 185.868,21.055 187.038,21.657C188.208,22.258 189.527,22.611 190.999,22.716C192.468,22.819 193.824,22.652 195.068,22.22C196.31,21.79 197.391,21.141 198.312,20.278C199.235,19.415 199.972,18.367 200.529,17.138C201.084,15.906 201.411,14.55 201.516,13.068C201.619,11.595 201.48,10.217 201.103,8.924C200.726,7.634 200.141,6.497 199.348,5.512L199.348,5.512ZM197.438,12.782C197.364,13.867 197.164,14.83 196.84,15.67C196.515,16.508 196.089,17.207 195.556,17.765C195.019,18.325 194.389,18.738 193.663,19.002C192.94,19.268 192.13,19.368 191.238,19.307C190.345,19.243 189.552,19.03 188.868,18.666C188.177,18.303 187.609,17.803 187.16,17.176C186.708,16.547 186.384,15.798 186.179,14.921C185.976,14.045 185.913,13.063 185.988,11.981C186.062,10.904 186.262,9.95 186.586,9.115C186.911,8.283 187.34,7.584 187.873,7.018C188.405,6.455 189.039,6.036 189.768,5.767C190.503,5.498 191.315,5.395 192.208,5.456C193.1,5.52 193.885,5.734 194.569,6.105C195.251,6.474 195.817,6.974 196.266,7.609C196.715,8.241 197.045,8.993 197.247,9.861C197.452,10.732 197.516,11.706 197.438,12.782L197.438,12.782Z" style="fill:rgb(8,6,5);fill-rule:nonzero;"/>
        <path id="path29" d="M218.02,26.525C218.2,26.672 218.447,26.78 218.752,26.847L220.767,27.271L224.966,7.451L221.521,6.719L219.06,18.33C218.935,18.919 218.835,19.548 218.755,20.217L211.728,5.284C211.645,5.129 211.567,5.004 211.5,4.907C211.434,4.81 211.356,4.73 211.27,4.663C211.187,4.599 211.085,4.546 210.971,4.505C210.852,4.466 210.713,4.43 210.541,4.394L208.485,3.956L204.288,23.776L207.747,24.511L210.236,12.763C210.347,12.236 210.439,11.659 210.508,11.029L217.527,25.881C217.674,26.164 217.837,26.375 218.02,26.525L218.02,26.525Z" style="fill:rgb(8,6,5);fill-rule:nonzero;"/>
        <path id="path30" d="M227.109,28.758C227.564,29.16 228.054,29.521 228.587,29.834C229.119,30.15 229.673,30.406 230.25,30.603C231.273,30.949 232.234,31.096 233.138,31.038C234.045,30.98 234.868,30.764 235.605,30.386C236.348,30.012 236.988,29.49 237.532,28.827C238.075,28.164 238.491,27.399 238.787,26.533C239.059,25.731 239.17,25.013 239.123,24.375C239.078,23.737 238.926,23.154 238.668,22.638C238.41,22.12 238.075,21.648 237.667,21.224C237.26,20.805 236.825,20.408 236.37,20.045C235.913,19.679 235.467,19.329 235.026,18.996C234.585,18.666 234.205,18.328 233.887,17.989C233.571,17.648 233.338,17.299 233.199,16.935C233.061,16.569 233.063,16.172 233.213,15.737C233.446,15.054 233.853,14.572 234.435,14.297C235.018,14.025 235.738,14.036 236.606,14.33C237.099,14.497 237.507,14.71 237.837,14.974C238.166,15.237 238.446,15.495 238.676,15.751C238.904,16.006 239.103,16.239 239.27,16.444C239.433,16.652 239.608,16.785 239.791,16.846C239.985,16.913 240.159,16.93 240.317,16.891C240.475,16.852 240.633,16.755 240.797,16.597L242.371,15.135C241.931,14.261 241.299,13.487 240.478,12.813C239.663,12.136 238.704,11.612 237.609,11.24C236.639,10.907 235.719,10.771 234.86,10.827C233.997,10.879 233.219,11.082 232.523,11.423C231.824,11.767 231.226,12.228 230.732,12.802C230.236,13.382 229.867,14.022 229.626,14.727C229.327,15.609 229.191,16.391 229.227,17.071C229.257,17.748 229.396,18.353 229.645,18.888C229.892,19.423 230.222,19.901 230.635,20.314C231.048,20.727 231.481,21.11 231.935,21.46C232.39,21.806 232.839,22.139 233.285,22.458C233.731,22.777 234.111,23.104 234.424,23.44C234.74,23.779 234.962,24.145 235.092,24.533C235.223,24.921 235.206,25.36 235.037,25.851C234.746,26.719 234.28,27.29 233.651,27.571C233.019,27.848 232.271,27.842 231.403,27.546C230.807,27.343 230.322,27.08 229.95,26.755C229.579,26.428 229.263,26.098 229.013,25.773C228.758,25.443 228.537,25.152 228.354,24.888C228.171,24.625 227.96,24.455 227.73,24.378C227.558,24.319 227.381,24.308 227.201,24.344C227.023,24.381 226.868,24.455 226.732,24.569L224.991,25.992C225.216,26.494 225.51,26.988 225.878,27.454C226.244,27.92 226.655,28.358 227.109,28.758L227.109,28.758Z" style="fill:rgb(8,6,5);fill-rule:nonzero;"/>
        <path id="path31" d="M244.808,35.432C245.676,36.425 246.771,37.241 248.101,37.876C249.429,38.514 250.751,38.864 252.065,38.922C253.382,38.975 254.626,38.775 255.799,38.309C256.974,37.848 258.047,37.147 259.014,36.206C259.982,35.269 260.791,34.131 261.431,32.791C262.072,31.463 262.451,30.128 262.576,28.788C262.698,27.449 262.576,26.175 262.199,24.971C261.825,23.762 261.207,22.663 260.342,21.665C259.48,20.669 258.385,19.853 257.054,19.213C255.727,18.575 254.402,18.231 253.088,18.178C251.771,18.125 250.524,18.33 249.348,18.785C248.168,19.24 247.095,19.934 246.122,20.874C245.146,21.809 244.34,22.944 243.705,24.272C243.059,25.612 242.679,26.955 242.557,28.3C242.435,29.646 242.565,30.924 242.942,32.131C243.322,33.341 243.943,34.439 244.808,35.432L244.808,35.432ZM246.493,28.855C246.626,27.965 246.931,27.03 247.4,26.048C247.868,25.077 248.403,24.264 249.01,23.607C249.617,22.952 250.274,22.461 250.978,22.134C251.682,21.803 252.425,21.651 253.204,21.673C253.983,21.69 254.776,21.895 255.585,22.281C256.389,22.669 257.043,23.16 257.539,23.756C258.041,24.35 258.382,25.024 258.568,25.779C258.748,26.533 258.776,27.354 258.643,28.236C258.515,29.124 258.216,30.051 257.747,31.024C257.276,32.003 256.738,32.825 256.129,33.485C255.519,34.145 254.862,34.639 254.16,34.961C253.456,35.28 252.719,35.432 251.948,35.41C251.175,35.388 250.385,35.185 249.578,34.797C248.775,34.409 248.118,33.92 247.613,33.327C247.106,32.733 246.759,32.065 246.574,31.313C246.388,30.564 246.36,29.745 246.493,28.855L246.493,28.855Z" style="fill:rgb(8,6,5);fill-rule:nonzero;"/>
        <path id="path32" d="M263.507,46.084L267.754,39.549L268.891,40.287C269.179,40.478 269.378,40.664 269.481,40.855C269.584,41.041 269.631,41.28 269.628,41.565L269.279,48.875C269.273,49.513 269.542,50.01 270.077,50.362L273.107,52.331L273.331,43.668C273.326,43.327 273.281,43.011 273.204,42.722C273.123,42.434 273.015,42.162 272.879,41.901C273.564,42.068 274.218,42.129 274.856,42.084C275.488,42.043 276.086,41.909 276.649,41.688C277.212,41.466 277.733,41.155 278.21,40.753C278.687,40.356 279.105,39.882 279.465,39.324C279.937,38.6 280.25,37.857 280.405,37.097C280.558,36.336 280.519,35.571 280.286,34.8C280.053,34.031 279.612,33.26 278.961,32.489C278.31,31.721 277.414,30.966 276.283,30.231L271.169,26.902L260.134,43.887L263.507,46.084ZM272.865,31.682L274.606,32.814C275.66,33.501 276.3,34.234 276.519,35.013C276.741,35.796 276.58,36.597 276.045,37.424C275.773,37.846 275.46,38.192 275.105,38.464C274.753,38.739 274.368,38.919 273.944,39.008C273.52,39.099 273.065,39.086 272.577,38.975C272.084,38.861 271.568,38.625 271.022,38.27L269.309,37.158L272.865,31.682L272.865,31.682Z" style="fill:rgb(8,6,5);fill-rule:nonzero;"/>
        <path id="polygon32" d="M278.398,56.637L281.489,59.169L292.247,46.015L296.469,49.471L298.536,46.944L286.997,37.499L284.929,40.026L289.153,43.482L278.398,56.637Z" style="fill:rgb(8,6,5);fill-rule:nonzero;"/>
        <g id="rect32" transform="matrix(0.695384,-0.718638,0.718638,0.695384,47.73295,231.40606)">
            <rect x="286.702" y="57.385" width="20.254" height="4.026" style="fill:rgb(8,6,5);"/>
        </g>
        <path id="path33" d="M298.947,68.873C298.417,69.835 298.104,70.837 298.007,71.882C297.91,72.923 298.04,73.98 298.406,75.053C298.766,76.124 299.373,77.161 300.219,78.163C301.067,79.167 301.987,79.93 302.985,80.46C303.978,80.99 304.995,81.295 306.037,81.367C307.082,81.444 308.119,81.3 309.158,80.934C310.192,80.571 311.176,79.991 312.108,79.2L321.322,71.391L318.738,68.34L309.524,76.154C308.951,76.64 308.366,77.003 307.77,77.242C307.171,77.48 306.589,77.591 306.018,77.578C305.444,77.561 304.892,77.419 304.352,77.148C303.817,76.876 303.321,76.468 302.861,75.927C302.4,75.38 302.079,74.823 301.899,74.249C301.719,73.677 301.671,73.106 301.749,72.537C301.827,71.968 302.035,71.411 302.367,70.862C302.703,70.312 303.157,69.794 303.728,69.308L312.942,61.497L310.353,58.434L301.139,66.246C300.208,67.036 299.479,67.91 298.947,68.873L298.947,68.873Z" style="fill:rgb(8,6,5);fill-rule:nonzero;"/>
        <path id="path34" d="M310.68,91.231L321.516,84.66C321.76,84.512 322.015,84.346 322.286,84.155C322.558,83.966 322.832,83.766 323.107,83.55L316.731,94.984C316.39,95.561 316.382,96.113 316.704,96.643L316.997,97.126C317.313,97.647 317.804,97.891 318.469,97.853L331.459,97.453C331.154,97.597 330.86,97.75 330.577,97.903C330.297,98.058 330.039,98.205 329.804,98.349L318.971,104.921L320.798,107.933L338.108,97.431L336.548,94.846C336.456,94.699 336.37,94.568 336.293,94.463C336.218,94.355 336.138,94.266 336.054,94.197C335.971,94.13 335.872,94.083 335.752,94.052C335.633,94.022 335.486,94.013 335.317,94.022L322.721,94.366C322.361,94.38 322.001,94.416 321.638,94.471C321.272,94.524 320.9,94.585 320.523,94.649C320.981,94.072 321.397,93.47 321.762,92.84L327.894,81.772C327.983,81.625 328.038,81.492 328.063,81.372C328.088,81.256 328.091,81.145 328.071,81.031C328.049,80.92 328.01,80.806 327.952,80.693C327.894,80.576 327.825,80.446 327.733,80.299L326.161,77.702L308.845,88.205L310.68,91.231Z" style="fill:rgb(8,6,5);fill-rule:nonzero;"/>
        <path id="path35" d="M26.734,240.804C26.734,238.33 24.653,236.28 22.182,236.28C19.74,236.28 17.69,238.33 17.69,240.804C17.69,243.248 19.74,245.331 22.182,245.331C24.653,245.331 26.734,243.248 26.734,240.804Z" style="fill:rgb(8,6,5);fill-rule:nonzero;"/>
        <path id="path36" d="M333.196,120.824C333.196,123.268 335.246,125.351 337.688,125.351C340.159,125.351 342.239,123.268 342.239,120.824C342.239,118.35 340.159,116.3 337.688,116.3C335.246,116.3 333.196,118.35 333.196,120.824Z" style="fill:rgb(8,6,5);fill-rule:nonzero;"/>
    </g>
</svg>
